<svg width="24" height="24" viewBox="0 0 24 24" fill="none" xmlns="http://www.w3.org/2000/svg">
<circle cx="12" cy="12" r="11" fill="#1E2E29"/>
<circle cx="12" cy="12" r="10.875" stroke="#F9F9F9" stroke-opacity="0.5" stroke-width="0.25"/>
<path fill-rule="evenodd" clip-rule="evenodd" d="M16.6732 10.5361C16.6732 10.7785 16.4757 10.9753 16.2347 10.9753C15.9938 10.9753 15.7963 10.7785 15.7963 10.5361V9.22256C15.7963 8.95168 15.6889 8.69102 15.4969 8.49936C15.3049 8.30807 15.0453 8.19965 14.7741 8.19965H13.4605C13.2178 8.19965 13.0221 8.00434 13.0221 7.76193C13.0221 7.51953 13.2178 7.32422 13.4605 7.32422H14.7741C15.2786 7.32422 15.7605 7.52355 16.116 7.88058C16.472 8.23616 16.6731 8.71843 16.6731 9.22255L16.6732 10.5361ZM13.4606 16.6696C13.2178 16.6696 13.0221 16.4739 13.0221 16.2315C13.0221 15.9891 13.2178 15.7938 13.4606 15.7938H14.7741C15.0454 15.7938 15.3049 15.6857 15.4969 15.4941C15.689 15.3024 15.7963 15.0421 15.7963 14.7709V13.4574C15.7963 13.215 15.9938 13.0185 16.2347 13.0185C16.4757 13.0185 16.6732 13.215 16.6732 13.4574V14.7709C16.6732 15.275 16.472 15.7573 16.1161 16.1129C15.7605 16.4699 15.2787 16.6696 14.7741 16.6696L13.4606 16.6696ZM7.32669 13.4574C7.32669 13.215 7.52419 13.0186 7.76514 13.0186C8.00608 13.0186 8.20358 13.215 8.20358 13.4574V14.7709C8.20358 15.0422 8.31091 15.3025 8.50294 15.4941C8.69497 15.6858 8.95452 15.7938 9.22577 15.7938H10.5393C10.7824 15.7938 10.9781 15.9892 10.9781 16.2316C10.9781 16.474 10.7824 16.6696 10.5393 16.6696H9.22577C8.72125 16.6696 8.23933 16.4699 7.8838 16.1129C7.52823 15.7573 7.32671 15.2751 7.32671 14.771L7.32669 13.4574ZM10.5393 7.32429C10.7824 7.32429 10.9781 7.5196 10.9781 7.762C10.9781 8.00441 10.7824 8.19972 10.5393 8.19972H9.22574C8.95449 8.19972 8.69493 8.30814 8.50291 8.49943C8.31089 8.69109 8.20355 8.95175 8.20355 9.22263V10.5362C8.20355 10.7786 8.00605 10.9753 7.76511 10.9753C7.52416 10.9753 7.32666 10.7786 7.32666 10.5362V9.22263C7.32666 8.71847 7.52818 8.23619 7.88375 7.88066C8.23932 7.52362 8.7212 7.3243 9.22571 7.3243L10.5393 7.32429Z" fill="#AEF5B7" stroke="#AEF5B7" stroke-width="0.418314"/>
</svg>
