<svg width="150" height="200" viewBox="0 0 150 200" fill="none" xmlns="http://www.w3.org/2000/svg">
<rect width="150" height="200" rx="16" fill="#AEF5B7"/>
<path d="M44.108 14.288H46.628C47.0333 14.288 47.364 14.3467 47.62 14.464C47.876 14.5813 48.0733 14.728 48.212 14.904C48.3507 15.08 48.444 15.272 48.492 15.48C48.5453 15.688 48.572 15.88 48.572 16.056C48.572 16.232 48.5453 16.424 48.492 16.632C48.444 16.8347 48.3507 17.024 48.212 17.2C48.0733 17.376 47.876 17.5227 47.62 17.64C47.364 17.752 47.0333 17.808 46.628 17.808H45.108V20H44.108V14.288ZM45.108 16.992H46.572C46.684 16.992 46.7987 16.976 46.916 16.944C47.0333 16.912 47.14 16.8613 47.236 16.792C47.3373 16.7173 47.4173 16.6213 47.476 16.504C47.54 16.3813 47.572 16.2293 47.572 16.048C47.572 15.8613 47.5453 15.7067 47.492 15.584C47.4387 15.4613 47.3667 15.3653 47.276 15.296C47.1853 15.2213 47.0813 15.1707 46.964 15.144C46.8467 15.1173 46.7213 15.104 46.588 15.104H45.108V16.992ZM49.3399 14.288H50.2519V20H49.3399V14.288ZM54.7096 19.08C54.7096 19.192 54.723 19.272 54.7496 19.32C54.7816 19.368 54.8403 19.392 54.9256 19.392C54.9523 19.392 54.9843 19.392 55.0216 19.392C55.059 19.392 55.1016 19.3867 55.1496 19.376V20.008C55.1176 20.0187 55.075 20.0293 55.0216 20.04C54.9736 20.056 54.923 20.0693 54.8696 20.08C54.8163 20.0907 54.763 20.0987 54.7096 20.104C54.6563 20.1093 54.611 20.112 54.5736 20.112C54.387 20.112 54.2323 20.0747 54.1096 20C53.987 19.9253 53.907 19.7947 53.8696 19.608C53.6883 19.784 53.4643 19.912 53.1976 19.992C52.9363 20.072 52.683 20.112 52.4376 20.112C52.251 20.112 52.0723 20.0853 51.9016 20.032C51.731 19.984 51.579 19.912 51.4456 19.816C51.3176 19.7147 51.2136 19.5893 51.1336 19.44C51.059 19.2853 51.0216 19.1067 51.0216 18.904C51.0216 18.648 51.067 18.44 51.1576 18.28C51.2536 18.12 51.3763 17.9947 51.5256 17.904C51.6803 17.8133 51.851 17.7493 52.0376 17.712C52.2296 17.6693 52.4216 17.6373 52.6136 17.616C52.779 17.584 52.9363 17.5627 53.0856 17.552C53.235 17.536 53.3656 17.512 53.4776 17.48C53.595 17.448 53.6856 17.4 53.7496 17.336C53.819 17.2667 53.8536 17.1653 53.8536 17.032C53.8536 16.9147 53.8243 16.8187 53.7656 16.744C53.7123 16.6693 53.643 16.6133 53.5576 16.576C53.4776 16.5333 53.387 16.5067 53.2856 16.496C53.1843 16.48 53.0883 16.472 52.9976 16.472C52.7416 16.472 52.531 16.5253 52.3656 16.632C52.2003 16.7387 52.107 16.904 52.0856 17.128H51.1736C51.1896 16.8613 51.2536 16.64 51.3656 16.464C51.4776 16.288 51.619 16.1467 51.7896 16.04C51.9656 15.9333 52.163 15.8587 52.3816 15.816C52.6003 15.7733 52.8243 15.752 53.0536 15.752C53.2563 15.752 53.4563 15.7733 53.6536 15.816C53.851 15.8587 54.027 15.928 54.1816 16.024C54.3416 16.12 54.4696 16.2453 54.5656 16.4C54.6616 16.5493 54.7096 16.7333 54.7096 16.952V19.08ZM53.7976 17.928C53.659 18.0187 53.4883 18.0747 53.2856 18.096C53.083 18.112 52.8803 18.1387 52.6776 18.176C52.5816 18.192 52.4883 18.216 52.3976 18.248C52.307 18.2747 52.227 18.3147 52.1576 18.368C52.0883 18.416 52.0323 18.4827 51.9896 18.568C51.9523 18.648 51.9336 18.7467 51.9336 18.864C51.9336 18.9653 51.963 19.0507 52.0216 19.12C52.0803 19.1893 52.1496 19.2453 52.2296 19.288C52.315 19.3253 52.4056 19.352 52.5016 19.368C52.603 19.384 52.6936 19.392 52.7736 19.392C52.875 19.392 52.9843 19.3787 53.1016 19.352C53.219 19.3253 53.3283 19.28 53.4296 19.216C53.5363 19.152 53.6243 19.072 53.6936 18.976C53.763 18.8747 53.7976 18.752 53.7976 18.608V17.928ZM55.6909 15.864H56.5549V16.472L56.5709 16.488C56.7096 16.2587 56.8909 16.08 57.1149 15.952C57.3389 15.8187 57.5869 15.752 57.8589 15.752C58.3123 15.752 58.6696 15.8693 58.9309 16.104C59.1923 16.3387 59.3229 16.6907 59.3229 17.16V20H58.4109V17.4C58.4003 17.0747 58.3309 16.84 58.2029 16.696C58.0749 16.5467 57.8749 16.472 57.6029 16.472C57.4483 16.472 57.3096 16.5013 57.1869 16.56C57.0643 16.6133 56.9603 16.6907 56.8749 16.792C56.7896 16.888 56.7229 17.0027 56.6749 17.136C56.6269 17.2693 56.6029 17.4107 56.6029 17.56V20H55.6909V15.864ZM62.0553 15.864H63.0553L64.1353 18.952H64.1513L65.1993 15.864H66.1513L64.5433 20.224C64.4686 20.4107 64.3939 20.5893 64.3193 20.76C64.2499 20.9307 64.1619 21.08 64.0553 21.208C63.9539 21.3413 63.8259 21.4453 63.6713 21.52C63.5166 21.6 63.3193 21.64 63.0793 21.64C62.8659 21.64 62.6553 21.624 62.4473 21.592V20.824C62.5219 20.8347 62.5939 20.8453 62.6633 20.856C62.7326 20.872 62.8046 20.88 62.8793 20.88C62.9859 20.88 63.0739 20.8667 63.1433 20.84C63.2126 20.8133 63.2686 20.7733 63.3113 20.72C63.3593 20.672 63.3993 20.6133 63.4313 20.544C63.4633 20.4747 63.4926 20.3947 63.5193 20.304L63.6233 19.984L62.0553 15.864ZM68.5557 20.112C68.225 20.112 67.929 20.0587 67.6677 19.952C67.4117 19.84 67.193 19.688 67.0117 19.496C66.8357 19.304 66.6997 19.0747 66.6037 18.808C66.513 18.5413 66.4677 18.248 66.4677 17.928C66.4677 17.6133 66.513 17.3227 66.6037 17.056C66.6997 16.7893 66.8357 16.56 67.0117 16.368C67.193 16.176 67.4117 16.0267 67.6677 15.92C67.929 15.808 68.225 15.752 68.5557 15.752C68.8864 15.752 69.1797 15.808 69.4357 15.92C69.697 16.0267 69.9157 16.176 70.0917 16.368C70.273 16.56 70.409 16.7893 70.4997 17.056C70.5957 17.3227 70.6437 17.6133 70.6437 17.928C70.6437 18.248 70.5957 18.5413 70.4997 18.808C70.409 19.0747 70.273 19.304 70.0917 19.496C69.9157 19.688 69.697 19.84 69.4357 19.952C69.1797 20.0587 68.8864 20.112 68.5557 20.112ZM68.5557 19.392C68.7584 19.392 68.9344 19.3493 69.0837 19.264C69.233 19.1787 69.3557 19.0667 69.4517 18.928C69.5477 18.7893 69.617 18.6347 69.6597 18.464C69.7077 18.288 69.7317 18.1093 69.7317 17.928C69.7317 17.752 69.7077 17.576 69.6597 17.4C69.617 17.224 69.5477 17.0693 69.4517 16.936C69.3557 16.7973 69.233 16.6853 69.0837 16.6C68.9344 16.5147 68.7584 16.472 68.5557 16.472C68.353 16.472 68.177 16.5147 68.0277 16.6C67.8784 16.6853 67.7557 16.7973 67.6597 16.936C67.5637 17.0693 67.4917 17.224 67.4437 17.4C67.401 17.576 67.3797 17.752 67.3797 17.928C67.3797 18.1093 67.401 18.288 67.4437 18.464C67.4917 18.6347 67.5637 18.7893 67.6597 18.928C67.7557 19.0667 67.8784 19.1787 68.0277 19.264C68.177 19.3493 68.353 19.392 68.5557 19.392ZM75.0339 20H74.1379V19.424H74.1219C74.0099 19.632 73.8419 19.8 73.6179 19.928C73.3992 20.0507 73.1752 20.112 72.9459 20.112C72.4019 20.112 72.0072 19.9787 71.7619 19.712C71.5219 19.44 71.4019 19.032 71.4019 18.488V15.864H72.3139V18.4C72.3139 18.7627 72.3832 19.0187 72.5219 19.168C72.6605 19.3173 72.8552 19.392 73.1059 19.392C73.2979 19.392 73.4579 19.3627 73.5859 19.304C73.7139 19.2453 73.8179 19.168 73.8979 19.072C73.9779 18.9707 74.0339 18.8507 74.0659 18.712C74.1032 18.5733 74.1219 18.424 74.1219 18.264V15.864H75.0339V20ZM75.9956 15.864H76.8516V16.664H76.8676C76.8943 16.552 76.945 16.4427 77.0196 16.336C77.0996 16.2293 77.193 16.1333 77.2996 16.048C77.4116 15.9573 77.5343 15.8853 77.6676 15.832C77.801 15.7787 77.937 15.752 78.0756 15.752C78.1823 15.752 78.2543 15.7547 78.2916 15.76C78.3343 15.7653 78.377 15.7707 78.4196 15.776V16.656C78.3556 16.6453 78.289 16.6373 78.2196 16.632C78.1556 16.6213 78.0916 16.616 78.0276 16.616C77.873 16.616 77.7263 16.648 77.5876 16.712C77.4543 16.7707 77.337 16.8613 77.2356 16.984C77.1343 17.1013 77.0543 17.248 76.9956 17.424C76.937 17.6 76.9076 17.8027 76.9076 18.032V20H75.9956V15.864ZM81.0587 15.864H81.9227V16.424H81.9387C82.0667 16.184 82.2454 16.0133 82.4747 15.912C82.704 15.8053 82.952 15.752 83.2187 15.752C83.544 15.752 83.8267 15.8107 84.0667 15.928C84.312 16.04 84.5147 16.1973 84.6747 16.4C84.8347 16.5973 84.9547 16.8293 85.0347 17.096C85.1147 17.3627 85.1547 17.648 85.1547 17.952C85.1547 18.2293 85.1174 18.4987 85.0427 18.76C84.9734 19.0213 84.864 19.2533 84.7147 19.456C84.5707 19.6533 84.3867 19.8133 84.1627 19.936C83.9387 20.0533 83.6747 20.112 83.3707 20.112C83.2374 20.112 83.104 20.0987 82.9707 20.072C82.8374 20.0507 82.7094 20.0133 82.5867 19.96C82.464 19.9067 82.3494 19.84 82.2427 19.76C82.1414 19.6747 82.056 19.576 81.9867 19.464H81.9707V21.528H81.0587V15.864ZM84.2427 17.936C84.2427 17.7493 84.2187 17.568 84.1707 17.392C84.1227 17.216 84.0507 17.0613 83.9547 16.928C83.8587 16.7893 83.7387 16.68 83.5947 16.6C83.4507 16.5147 83.2854 16.472 83.0987 16.472C82.7147 16.472 82.424 16.6053 82.2267 16.872C82.0347 17.1387 81.9387 17.4933 81.9387 17.936C81.9387 18.144 81.9627 18.3387 82.0107 18.52C82.064 18.696 82.1414 18.848 82.2427 18.976C82.344 19.104 82.464 19.2053 82.6027 19.28C82.7467 19.3547 82.912 19.392 83.0987 19.392C83.3067 19.392 83.4827 19.3493 83.6267 19.264C83.7707 19.1787 83.888 19.0693 83.9787 18.936C84.0747 18.7973 84.1414 18.6427 84.1787 18.472C84.2214 18.296 84.2427 18.1173 84.2427 17.936ZM85.9253 15.864H86.7813V16.664H86.7973C86.824 16.552 86.8746 16.4427 86.9493 16.336C87.0293 16.2293 87.1226 16.1333 87.2293 16.048C87.3413 15.9573 87.464 15.8853 87.5973 15.832C87.7306 15.7787 87.8666 15.752 88.0053 15.752C88.112 15.752 88.184 15.7547 88.2213 15.76C88.264 15.7653 88.3066 15.7707 88.3493 15.776V16.656C88.2853 16.6453 88.2186 16.6373 88.1493 16.632C88.0853 16.6213 88.0213 16.616 87.9573 16.616C87.8026 16.616 87.656 16.648 87.5173 16.712C87.384 16.7707 87.2666 16.8613 87.1653 16.984C87.064 17.1013 86.984 17.248 86.9253 17.424C86.8666 17.6 86.8373 17.8027 86.8373 18.032V20H85.9253V15.864ZM90.4932 20.112C90.1625 20.112 89.8665 20.0587 89.6052 19.952C89.3492 19.84 89.1305 19.688 88.9492 19.496C88.7732 19.304 88.6372 19.0747 88.5412 18.808C88.4505 18.5413 88.4052 18.248 88.4052 17.928C88.4052 17.6133 88.4505 17.3227 88.5412 17.056C88.6372 16.7893 88.7732 16.56 88.9492 16.368C89.1305 16.176 89.3492 16.0267 89.6052 15.92C89.8665 15.808 90.1625 15.752 90.4932 15.752C90.8239 15.752 91.1172 15.808 91.3732 15.92C91.6345 16.0267 91.8532 16.176 92.0292 16.368C92.2105 16.56 92.3465 16.7893 92.4372 17.056C92.5332 17.3227 92.5812 17.6133 92.5812 17.928C92.5812 18.248 92.5332 18.5413 92.4372 18.808C92.3465 19.0747 92.2105 19.304 92.0292 19.496C91.8532 19.688 91.6345 19.84 91.3732 19.952C91.1172 20.0587 90.8239 20.112 90.4932 20.112ZM90.4932 19.392C90.6959 19.392 90.8719 19.3493 91.0212 19.264C91.1705 19.1787 91.2932 19.0667 91.3892 18.928C91.4852 18.7893 91.5545 18.6347 91.5972 18.464C91.6452 18.288 91.6692 18.1093 91.6692 17.928C91.6692 17.752 91.6452 17.576 91.5972 17.4C91.5545 17.224 91.4852 17.0693 91.3892 16.936C91.2932 16.7973 91.1705 16.6853 91.0212 16.6C90.8719 16.5147 90.6959 16.472 90.4932 16.472C90.2905 16.472 90.1145 16.5147 89.9652 16.6C89.8159 16.6853 89.6932 16.7973 89.5972 16.936C89.5012 17.0693 89.4292 17.224 89.3812 17.4C89.3385 17.576 89.3172 17.752 89.3172 17.928C89.3172 18.1093 89.3385 18.288 89.3812 18.464C89.4292 18.6347 89.5012 18.7893 89.5972 18.928C89.6932 19.0667 89.8159 19.1787 89.9652 19.264C90.1145 19.3493 90.2905 19.392 90.4932 19.392ZM93.3634 14.288H94.2754V15.152H93.3634V14.288ZM93.3634 15.864H94.2754V20.352C94.2754 20.7627 94.1847 21.08 94.0034 21.304C93.822 21.528 93.518 21.64 93.0914 21.64C93.0007 21.64 92.9234 21.6373 92.8594 21.632C92.8007 21.6267 92.742 21.6187 92.6834 21.608V20.888C92.742 20.8987 92.798 20.9067 92.8514 20.912C92.9047 20.9173 92.9527 20.92 92.9954 20.92C93.1607 20.92 93.262 20.8693 93.2994 20.768C93.342 20.6667 93.3634 20.5147 93.3634 20.312V15.864ZM98.1091 17.568C98.0984 17.424 98.0664 17.2853 98.0131 17.152C97.9651 17.0187 97.8957 16.904 97.8051 16.808C97.7197 16.7067 97.6131 16.6267 97.4851 16.568C97.3624 16.504 97.2237 16.472 97.0691 16.472C96.9091 16.472 96.7624 16.5013 96.6291 16.56C96.5011 16.6133 96.3891 16.6907 96.2931 16.792C96.2024 16.888 96.1277 17.0027 96.0691 17.136C96.0157 17.2693 95.9864 17.4133 95.9811 17.568H98.1091ZM95.9811 18.168C95.9811 18.328 96.0024 18.4827 96.0451 18.632C96.0931 18.7813 96.1624 18.912 96.2531 19.024C96.3437 19.136 96.4584 19.2267 96.5971 19.296C96.7357 19.36 96.9011 19.392 97.0931 19.392C97.3597 19.392 97.5731 19.336 97.7331 19.224C97.8984 19.1067 98.0211 18.9333 98.1011 18.704H98.9651C98.9171 18.928 98.8344 19.128 98.7171 19.304C98.5997 19.48 98.4584 19.6293 98.2931 19.752C98.1277 19.8693 97.9411 19.9573 97.7331 20.016C97.5304 20.08 97.3171 20.112 97.0931 20.112C96.7677 20.112 96.4797 20.0587 96.2291 19.952C95.9784 19.8453 95.7651 19.696 95.5891 19.504C95.4184 19.312 95.2877 19.0827 95.1971 18.816C95.1117 18.5493 95.0691 18.256 95.0691 17.936C95.0691 17.6427 95.1144 17.3653 95.2051 17.104C95.3011 16.8373 95.4344 16.6053 95.6051 16.408C95.7811 16.2053 95.9917 16.0453 96.2371 15.928C96.4824 15.8107 96.7597 15.752 97.0691 15.752C97.3944 15.752 97.6851 15.8213 97.9411 15.96C98.2024 16.0933 98.4184 16.272 98.5891 16.496C98.7597 16.72 98.8824 16.9787 98.9571 17.272C99.0371 17.56 99.0584 17.8587 99.0211 18.168H95.9811ZM102.506 17.248C102.469 16.992 102.365 16.8 102.194 16.672C102.029 16.5387 101.818 16.472 101.562 16.472C101.445 16.472 101.32 16.4933 101.186 16.536C101.053 16.5733 100.93 16.648 100.818 16.76C100.706 16.8667 100.613 17.0187 100.538 17.216C100.464 17.408 100.426 17.6613 100.426 17.976C100.426 18.1467 100.445 18.3173 100.482 18.488C100.525 18.6587 100.589 18.8107 100.674 18.944C100.765 19.0773 100.88 19.1867 101.018 19.272C101.157 19.352 101.325 19.392 101.522 19.392C101.789 19.392 102.008 19.3093 102.178 19.144C102.354 18.9787 102.464 18.7467 102.506 18.448H103.418C103.333 18.9867 103.128 19.4 102.802 19.688C102.482 19.9707 102.056 20.112 101.522 20.112C101.197 20.112 100.909 20.0587 100.658 19.952C100.413 19.84 100.205 19.6907 100.034 19.504C99.8637 19.312 99.733 19.0853 99.6424 18.824C99.557 18.5627 99.5144 18.28 99.5144 17.976C99.5144 17.6667 99.557 17.376 99.6424 17.104C99.7277 16.832 99.8557 16.5973 100.026 16.4C100.197 16.1973 100.408 16.04 100.658 15.928C100.914 15.8107 101.213 15.752 101.554 15.752C101.794 15.752 102.021 15.784 102.234 15.848C102.453 15.9067 102.645 15.9973 102.81 16.12C102.981 16.2427 103.12 16.3973 103.226 16.584C103.333 16.7707 103.397 16.992 103.418 17.248H102.506ZM103.744 15.864H104.432V14.624H105.344V15.864H106.168V16.544H105.344V18.752C105.344 18.848 105.346 18.9307 105.352 19C105.362 19.0693 105.381 19.128 105.408 19.176C105.44 19.224 105.485 19.2613 105.544 19.288C105.602 19.3093 105.682 19.32 105.784 19.32C105.848 19.32 105.912 19.32 105.976 19.32C106.04 19.3147 106.104 19.304 106.168 19.288V19.992C106.066 20.0027 105.968 20.0133 105.872 20.024C105.776 20.0347 105.677 20.04 105.576 20.04C105.336 20.04 105.141 20.0187 104.992 19.976C104.848 19.928 104.733 19.8613 104.648 19.776C104.568 19.6853 104.512 19.5733 104.48 19.44C104.453 19.3067 104.437 19.1547 104.432 18.984V16.544H103.744V15.864Z" fill="#1E2E29"/>
<path d="M35.462 51.8766H36.2128L37.5121 55.3416L38.8173 51.8766H39.568V56H39.0483V52.5696H39.0367L37.7489 56H37.2811L35.9933 52.5696H35.9818V56H35.462V51.8766ZM43.0451 55.9884C42.9604 56.0385 42.843 56.0635 42.6928 56.0635C42.5658 56.0635 42.4638 56.0289 42.3868 55.9596C42.3136 55.8864 42.277 55.769 42.277 55.6073C42.1423 55.769 41.9844 55.8864 41.8035 55.9596C41.6264 56.0289 41.4339 56.0635 41.226 56.0635C41.0912 56.0635 40.9623 56.0481 40.8391 56.0173C40.7197 55.9865 40.6158 55.9384 40.5272 55.8729C40.4387 55.8075 40.3674 55.7228 40.3135 55.6188C40.2635 55.511 40.2385 55.3821 40.2385 55.2319C40.2385 55.0625 40.2673 54.9239 40.3251 54.8161C40.3828 54.7083 40.4579 54.6217 40.5503 54.5562C40.6466 54.4869 40.7544 54.435 40.8737 54.4003C40.9969 54.3657 41.122 54.3368 41.2491 54.3137C41.3838 54.2867 41.5109 54.2675 41.6302 54.2559C41.7534 54.2405 41.8612 54.2213 41.9536 54.1982C42.046 54.1712 42.1192 54.1347 42.1731 54.0885C42.227 54.0384 42.2539 53.9672 42.2539 53.8748C42.2539 53.767 42.2328 53.6804 42.1904 53.6149C42.1519 53.5495 42.0999 53.4994 42.0345 53.4648C41.9729 53.4301 41.9017 53.407 41.8208 53.3955C41.7438 53.3839 41.6668 53.3781 41.5898 53.3781C41.3819 53.3781 41.2087 53.4186 41.0701 53.4994C40.9315 53.5764 40.8564 53.7246 40.8448 53.9441H40.354C40.3617 53.7593 40.4002 53.6034 40.4695 53.4763C40.5388 53.3493 40.6312 53.2472 40.7467 53.1702C40.8622 53.0894 40.9931 53.0316 41.1394 52.997C41.2895 52.9623 41.4493 52.945 41.6187 52.945C41.7534 52.945 41.8863 52.9546 42.0172 52.9739C42.1519 52.9931 42.2732 53.0336 42.381 53.0952C42.4888 53.1529 42.5754 53.2357 42.6409 53.3435C42.7063 53.4513 42.739 53.5918 42.739 53.7651V55.3012C42.739 55.4167 42.7448 55.5014 42.7564 55.5553C42.7718 55.6092 42.818 55.6362 42.895 55.6362C42.9373 55.6362 42.9874 55.6265 43.0451 55.6073V55.9884ZM42.2482 54.4581C42.1866 54.5043 42.1057 54.5389 42.0056 54.562C41.9055 54.5813 41.7996 54.5986 41.688 54.614C41.5802 54.6255 41.4705 54.6409 41.3588 54.6602C41.2472 54.6756 41.1471 54.7025 41.0585 54.741C40.97 54.7795 40.8968 54.8354 40.8391 54.9085C40.7852 54.9778 40.7582 55.0741 40.7582 55.1973C40.7582 55.2781 40.7736 55.3474 40.8044 55.4052C40.8391 55.4591 40.8814 55.5033 40.9315 55.538C40.9854 55.5726 41.047 55.5977 41.1163 55.6131C41.1856 55.6285 41.2587 55.6362 41.3357 55.6362C41.4974 55.6362 41.636 55.615 41.7515 55.5726C41.867 55.5264 41.9613 55.4706 42.0345 55.4052C42.1076 55.3359 42.1615 55.2627 42.1962 55.1857C42.2308 55.1049 42.2482 55.0298 42.2482 54.9605V54.4581ZM43.5308 51.8766H44.0217V54.3195L45.3846 53.0143H46.043L44.8591 54.1L46.1296 56H45.5059L44.4837 54.4407L44.0217 54.8681V56H43.5308V51.8766ZM47.0164 52.4772H46.5255V51.8766H47.0164V52.4772ZM46.5255 53.0143H47.0164V56H46.5255V53.0143ZM47.7768 53.0143H48.2388V53.4879H48.2504C48.4544 53.126 48.7778 52.945 49.2206 52.945C49.4169 52.945 49.5806 52.972 49.7115 53.0259C49.8424 53.0798 49.9482 53.1548 50.0291 53.2511C50.1099 53.3473 50.1658 53.4628 50.1966 53.5976C50.2312 53.7285 50.2485 53.8748 50.2485 54.0365V56H49.7577V53.9787C49.7577 53.7939 49.7038 53.6476 49.596 53.5398C49.4882 53.432 49.3399 53.3781 49.1513 53.3781C49.0011 53.3781 48.8702 53.4012 48.7586 53.4474C48.6508 53.4936 48.5603 53.5591 48.4872 53.6438C48.414 53.7285 48.3582 53.8286 48.3197 53.9441C48.285 54.0557 48.2677 54.1789 48.2677 54.3137V56H47.7768V53.0143ZM53.5614 55.7459C53.5614 56.2349 53.4498 56.6006 53.2265 56.8432C53.0032 57.0857 52.6528 57.207 52.1754 57.207C52.0368 57.207 51.8944 57.1916 51.7481 57.1608C51.6056 57.13 51.4747 57.0799 51.3554 57.0106C51.2399 56.9413 51.1436 56.8509 51.0666 56.7392C50.9896 56.6276 50.9473 56.4909 50.9396 56.3292H51.4305C51.4343 56.4177 51.4613 56.4928 51.5113 56.5544C51.5652 56.616 51.6287 56.6661 51.7019 56.7046C51.7789 56.7431 51.8617 56.77 51.9502 56.7854C52.0388 56.8047 52.1235 56.8143 52.2043 56.8143C52.366 56.8143 52.5027 56.7854 52.6143 56.7277C52.726 56.6738 52.8184 56.5968 52.8915 56.4967C52.9647 56.4004 53.0167 56.283 53.0475 56.1444C53.0821 56.0058 53.0994 55.8537 53.0994 55.6881V55.4918H53.0879C53.0032 55.6766 52.8742 55.8133 52.701 55.9018C52.5316 55.9865 52.3506 56.0289 52.1581 56.0289C51.9348 56.0289 51.7404 55.9884 51.5748 55.9076C51.4093 55.8267 51.2707 55.7189 51.159 55.5842C51.0474 55.4456 50.9627 55.2858 50.9049 55.1049C50.851 54.9201 50.8241 54.7256 50.8241 54.5216C50.8241 54.3445 50.8472 54.1635 50.8934 53.9787C50.9396 53.7901 51.0166 53.6207 51.1244 53.4705C51.2322 53.3165 51.3746 53.1914 51.5517 53.0952C51.7288 52.9951 51.9464 52.945 52.2043 52.945C52.393 52.945 52.5662 52.9874 52.7241 53.0721C52.8819 53.1529 53.0051 53.2761 53.0937 53.4417H53.0994V53.0143H53.5614V55.7459ZM52.187 55.6015C52.3487 55.6015 52.4854 55.5688 52.597 55.5033C52.7125 55.434 52.8049 55.3455 52.8742 55.2377C52.9435 55.126 52.9936 55.0009 53.0244 54.8623C53.059 54.7237 53.0763 54.5851 53.0763 54.4465C53.0763 54.3156 53.0609 54.1866 53.0301 54.0596C52.9993 53.9325 52.9493 53.819 52.88 53.7189C52.8145 53.6149 52.7279 53.5321 52.6201 53.4705C52.5123 53.4089 52.3814 53.3781 52.2274 53.3781C52.0696 53.3781 51.9348 53.4089 51.8232 53.4705C51.7115 53.5283 51.6191 53.6072 51.546 53.7073C51.4767 53.8074 51.4247 53.9229 51.39 54.0538C51.3592 54.1847 51.3438 54.3214 51.3438 54.4638C51.3438 54.5986 51.3573 54.7333 51.3843 54.8681C51.4112 55.0028 51.4574 55.126 51.5229 55.2377C51.5883 55.3455 51.6749 55.434 51.7827 55.5033C51.8905 55.5688 52.0253 55.6015 52.187 55.6015ZM58.5542 55.9884C58.4695 56.0385 58.352 56.0635 58.2019 56.0635C58.0748 56.0635 57.9728 56.0289 57.8958 55.9596C57.8227 55.8864 57.7861 55.769 57.7861 55.6073C57.6513 55.769 57.4935 55.8864 57.3125 55.9596C57.1354 56.0289 56.9429 56.0635 56.735 56.0635C56.6003 56.0635 56.4713 56.0481 56.3481 56.0173C56.2288 55.9865 56.1248 55.9384 56.0363 55.8729C55.9477 55.8075 55.8765 55.7228 55.8226 55.6188C55.7725 55.511 55.7475 55.3821 55.7475 55.2319C55.7475 55.0625 55.7764 54.9239 55.8341 54.8161C55.8919 54.7083 55.967 54.6217 56.0594 54.5562C56.1556 54.4869 56.2634 54.435 56.3828 54.4003C56.506 54.3657 56.6311 54.3368 56.7581 54.3137C56.8929 54.2867 57.0199 54.2675 57.1393 54.2559C57.2625 54.2405 57.3703 54.2213 57.4627 54.1982C57.5551 54.1712 57.6282 54.1347 57.6821 54.0885C57.736 54.0384 57.763 53.9672 57.763 53.8748C57.763 53.767 57.7418 53.6804 57.6995 53.6149C57.661 53.5495 57.609 53.4994 57.5435 53.4648C57.4819 53.4301 57.4107 53.407 57.3299 53.3955C57.2529 53.3839 57.1759 53.3781 57.0989 53.3781C56.891 53.3781 56.7177 53.4186 56.5791 53.4994C56.4405 53.5764 56.3654 53.7246 56.3539 53.9441H55.863C55.8707 53.7593 55.9092 53.6034 55.9785 53.4763C56.0478 53.3493 56.1402 53.2472 56.2557 53.1702C56.3712 53.0894 56.5021 53.0316 56.6484 52.997C56.7986 52.9623 56.9583 52.945 57.1277 52.945C57.2625 52.945 57.3953 52.9546 57.5262 52.9739C57.661 52.9931 57.7822 53.0336 57.89 53.0952C57.9978 53.1529 58.0845 53.2357 58.1499 53.3435C58.2154 53.4513 58.2481 53.5918 58.2481 53.7651V55.3012C58.2481 55.4167 58.2539 55.5014 58.2654 55.5553C58.2808 55.6092 58.327 55.6362 58.404 55.6362C58.4464 55.6362 58.4964 55.6265 58.5542 55.6073V55.9884ZM57.7572 54.4581C57.6956 54.5043 57.6148 54.5389 57.5147 54.562C57.4146 54.5813 57.3087 54.5986 57.197 54.614C57.0892 54.6255 56.9795 54.6409 56.8679 54.6602C56.7562 54.6756 56.6561 54.7025 56.5676 54.741C56.479 54.7795 56.4059 54.8354 56.3481 54.9085C56.2942 54.9778 56.2673 55.0741 56.2673 55.1973C56.2673 55.2781 56.2827 55.3474 56.3135 55.4052C56.3481 55.4591 56.3905 55.5033 56.4405 55.538C56.4944 55.5726 56.556 55.5977 56.6253 55.6131C56.6946 55.6285 56.7678 55.6362 56.8448 55.6362C57.0065 55.6362 57.1451 55.615 57.2606 55.5726C57.3761 55.5264 57.4704 55.4706 57.5435 55.4052C57.6167 55.3359 57.6706 55.2627 57.7052 55.1857C57.7399 55.1049 57.7572 55.0298 57.7572 54.9605V54.4581ZM59.7618 53.6553H59.1207V53.0143H59.7618V53.6553ZM59.1207 55.359H59.7618V56H59.1207V55.359Z" fill="#2D690D"/>
<path d="M112 54C112 58.4183 108.418 62 104 62H73C68.5817 62 65 58.4183 65 54C65 49.5817 68.5817 46 73 46H104C108.418 46 112 49.5817 112 54Z" fill="#F9F9F9"/>
<path d="M75.3966 53.973C75.3581 53.7843 75.2773 53.638 75.1541 53.5341C75.0309 53.4301 74.8653 53.3781 74.6574 53.3781C74.4803 53.3781 74.3321 53.4109 74.2128 53.4763C74.0934 53.5418 73.9972 53.6284 73.924 53.7362C73.8547 53.844 73.8047 53.9691 73.7739 54.1116C73.7431 54.2502 73.7277 54.3945 73.7277 54.5447C73.7277 54.6833 73.7431 54.818 73.7739 54.9489C73.8085 55.0798 73.8605 55.1973 73.9298 55.3012C73.9991 55.4013 74.0896 55.4822 74.2012 55.5438C74.3129 55.6054 74.4457 55.6362 74.5997 55.6362C74.8422 55.6362 75.0309 55.5726 75.1656 55.4456C75.3042 55.3185 75.3889 55.1395 75.4197 54.9085H75.9222C75.8683 55.2781 75.7297 55.563 75.5064 55.7632C75.2869 55.9634 74.9866 56.0635 74.6055 56.0635C74.3783 56.0635 74.1762 56.027 73.9991 55.9538C73.8258 55.8806 73.6795 55.7767 73.5602 55.6419C73.4447 55.5072 73.3561 55.3474 73.2945 55.1626C73.2368 54.974 73.2079 54.768 73.2079 54.5447C73.2079 54.3214 73.2368 54.1135 73.2945 53.921C73.3523 53.7246 73.4389 53.5552 73.5544 53.4128C73.6738 53.2665 73.822 53.1529 73.9991 53.0721C74.1762 52.9874 74.3822 52.945 74.617 52.945C74.7864 52.945 74.9443 52.9662 75.0906 53.0085C75.2407 53.047 75.3716 53.1086 75.4833 53.1933C75.5988 53.278 75.6931 53.3858 75.7662 53.5167C75.8394 53.6438 75.8856 53.7959 75.9048 53.973H75.3966ZM76.8295 54.51C76.8295 54.691 76.8526 54.8527 76.8988 54.9951C76.9488 55.1337 77.0162 55.2512 77.1009 55.3474C77.1856 55.4398 77.2838 55.511 77.3954 55.5611C77.5109 55.6111 77.6322 55.6362 77.7592 55.6362C77.8863 55.6362 78.0056 55.6111 78.1173 55.5611C78.2328 55.511 78.3329 55.4398 78.4176 55.3474C78.5023 55.2512 78.5677 55.1337 78.6139 54.9951C78.664 54.8527 78.689 54.691 78.689 54.51C78.689 54.3291 78.664 54.1693 78.6139 54.0307C78.5677 53.8883 78.5023 53.7689 78.4176 53.6727C78.3329 53.5764 78.2328 53.5033 78.1173 53.4532C78.0056 53.4032 77.8863 53.3781 77.7592 53.3781C77.6322 53.3781 77.5109 53.4032 77.3954 53.4532C77.2838 53.5033 77.1856 53.5764 77.1009 53.6727C77.0162 53.7689 76.9488 53.8883 76.8988 54.0307C76.8526 54.1693 76.8295 54.3291 76.8295 54.51ZM76.3097 54.51C76.3097 54.2906 76.3405 54.0865 76.4021 53.8979C76.4637 53.7054 76.5561 53.5398 76.6793 53.4012C76.8025 53.2588 76.9546 53.1471 77.1355 53.0663C77.3165 52.9854 77.5244 52.945 77.7592 52.945C77.9979 52.945 78.2058 52.9854 78.3829 53.0663C78.5639 53.1471 78.716 53.2588 78.8392 53.4012C78.9624 53.5398 79.0548 53.7054 79.1164 53.8979C79.178 54.0865 79.2088 54.2906 79.2088 54.51C79.2088 54.7295 79.178 54.9335 79.1164 55.1222C79.0548 55.3108 78.9624 55.4764 78.8392 55.6188C78.716 55.7574 78.5639 55.8672 78.3829 55.948C78.2058 56.025 77.9979 56.0635 77.7592 56.0635C77.5244 56.0635 77.3165 56.025 77.1355 55.948C76.9546 55.8672 76.8025 55.7574 76.6793 55.6188C76.5561 55.4764 76.4637 55.3108 76.4021 55.1222C76.3405 54.9335 76.3097 54.7295 76.3097 54.51ZM81.6124 53.4474H80.4805V56H79.9896V53.4474H79.4872V53.0143H79.9896V52.5696C79.9896 52.3271 80.0589 52.1442 80.1975 52.021C80.34 51.894 80.546 51.8304 80.8155 51.8304C80.8617 51.8304 80.9136 51.8343 80.9714 51.842C81.033 51.8497 81.0869 51.8612 81.1331 51.8766V52.304C81.0907 52.2886 81.0445 52.279 80.9945 52.2751C80.9444 52.2674 80.8982 52.2636 80.8559 52.2636C80.7365 52.2636 80.6441 52.2867 80.5787 52.3329C80.5132 52.3791 80.4805 52.4676 80.4805 52.5985V53.0143H81.6124V52.5696C81.6124 52.3271 81.6817 52.1442 81.8203 52.021C81.9628 51.894 82.1687 51.8304 82.4382 51.8304C82.4844 51.8304 82.5364 51.8343 82.5942 51.842C82.6558 51.8497 82.7097 51.8612 82.7559 51.8766V52.304C82.7135 52.2886 82.6673 52.279 82.6173 52.2751C82.5672 52.2674 82.521 52.2636 82.4787 52.2636C82.3593 52.2636 82.2669 52.2867 82.2015 52.3329C82.136 52.3791 82.1033 52.4676 82.1033 52.5985V53.0143H82.6808V53.4474H82.1033V56H81.6124V53.4474ZM85.1938 54.2213C85.1861 54.1058 85.1591 53.9961 85.1129 53.8921C85.0706 53.7882 85.0109 53.6996 84.9339 53.6265C84.8608 53.5495 84.7722 53.4898 84.6683 53.4474C84.5682 53.4012 84.4565 53.3781 84.3333 53.3781C84.2063 53.3781 84.0908 53.4012 83.9868 53.4474C83.8867 53.4898 83.8001 53.5495 83.7269 53.6265C83.6538 53.7035 83.596 53.7939 83.5537 53.8979C83.5113 53.998 83.4863 54.1058 83.4786 54.2213H85.1938ZM85.6673 55.0529C85.6019 55.3878 85.4575 55.64 85.2342 55.8094C85.0109 55.9788 84.7299 56.0635 84.3911 56.0635C84.1524 56.0635 83.9445 56.025 83.7674 55.948C83.5941 55.871 83.4478 55.7632 83.3285 55.6246C83.2091 55.486 83.1186 55.3205 83.057 55.128C82.9993 54.9355 82.9666 54.7256 82.9589 54.4985C82.9589 54.2713 82.9935 54.0634 83.0628 53.8748C83.1321 53.6861 83.2284 53.5225 83.3516 53.3839C83.4786 53.2453 83.6268 53.1375 83.7962 53.0605C83.9695 52.9835 84.1581 52.945 84.3622 52.945C84.6278 52.945 84.8473 53.0008 85.0205 53.1125C85.1976 53.2203 85.3382 53.3589 85.4421 53.5283C85.5499 53.6977 85.6231 53.8825 85.6616 54.0827C85.7039 54.2829 85.7212 54.4735 85.7135 54.6544H83.4786C83.4748 54.7853 83.4902 54.9104 83.5248 55.0298C83.5595 55.1453 83.6153 55.2492 83.6923 55.3416C83.7693 55.4302 83.8675 55.5014 83.9868 55.5553C84.1062 55.6092 84.2467 55.6362 84.4084 55.6362C84.6163 55.6362 84.7857 55.588 84.9166 55.4918C85.0513 55.3955 85.1399 55.2492 85.1822 55.0529H85.6673ZM88.2956 54.2213C88.2879 54.1058 88.2609 53.9961 88.2147 53.8921C88.1724 53.7882 88.1127 53.6996 88.0357 53.6265C87.9626 53.5495 87.874 53.4898 87.7701 53.4474C87.67 53.4012 87.5583 53.3781 87.4351 53.3781C87.3081 53.3781 87.1926 53.4012 87.0886 53.4474C86.9885 53.4898 86.9019 53.5495 86.8287 53.6265C86.7556 53.7035 86.6978 53.7939 86.6555 53.8979C86.6131 53.998 86.5881 54.1058 86.5804 54.2213H88.2956ZM88.7691 55.0529C88.7037 55.3878 88.5593 55.64 88.336 55.8094C88.1127 55.9788 87.8317 56.0635 87.4929 56.0635C87.2542 56.0635 87.0463 56.025 86.8692 55.948C86.6959 55.871 86.5496 55.7632 86.4303 55.6246C86.3109 55.486 86.2204 55.3205 86.1588 55.128C86.1011 54.9355 86.0684 54.7256 86.0607 54.4985C86.0607 54.2713 86.0953 54.0634 86.1646 53.8748C86.2339 53.6861 86.3302 53.5225 86.4534 53.3839C86.5804 53.2453 86.7286 53.1375 86.898 53.0605C87.0713 52.9835 87.2599 52.945 87.464 52.945C87.7296 52.945 87.9491 53.0008 88.1223 53.1125C88.2994 53.2203 88.44 53.3589 88.5439 53.5283C88.6517 53.6977 88.7249 53.8825 88.7634 54.0827C88.8057 54.2829 88.823 54.4735 88.8153 54.6544H86.5804C86.5766 54.7853 86.592 54.9104 86.6266 55.0298C86.6613 55.1453 86.7171 55.2492 86.7941 55.3416C86.8711 55.4302 86.9693 55.5014 87.0886 55.5553C87.208 55.6092 87.3485 55.6362 87.5102 55.6362C87.7181 55.6362 87.8875 55.588 88.0184 55.4918C88.1531 55.3955 88.2417 55.2492 88.284 55.0529H88.7691ZM91.6129 53.0143H92.2077V53.4474H91.6129V55.3012C91.6129 55.359 91.6168 55.4052 91.6245 55.4398C91.636 55.4745 91.6553 55.5014 91.6822 55.5207C91.7092 55.5399 91.7457 55.5534 91.7919 55.5611C91.842 55.5649 91.9055 55.5669 91.9825 55.5669H92.2077V56H91.8324C91.7053 56 91.5956 55.9923 91.5032 55.9769C91.4146 55.9576 91.3415 55.9249 91.2837 55.8787C91.2298 55.8325 91.1894 55.7671 91.1625 55.6824C91.1355 55.5977 91.122 55.486 91.122 55.3474V53.4474H90.6138V53.0143H91.122V52.1192H91.6129V53.0143ZM95.398 55.9884C95.3133 56.0385 95.1959 56.0635 95.0457 56.0635C94.9187 56.0635 94.8167 56.0289 94.7397 55.9596C94.6665 55.8864 94.6299 55.769 94.6299 55.6073C94.4952 55.769 94.3373 55.8864 94.1564 55.9596C93.9793 56.0289 93.7868 56.0635 93.5789 56.0635C93.4441 56.0635 93.3152 56.0481 93.192 56.0173C93.0726 55.9865 92.9687 55.9384 92.8801 55.8729C92.7916 55.8075 92.7203 55.7228 92.6664 55.6188C92.6164 55.511 92.5914 55.3821 92.5914 55.2319C92.5914 55.0625 92.6202 54.9239 92.678 54.8161C92.7357 54.7083 92.8108 54.6217 92.9032 54.5562C92.9995 54.4869 93.1073 54.435 93.2266 54.4003C93.3498 54.3657 93.4749 54.3368 93.602 54.3137C93.7367 54.2867 93.8638 54.2675 93.9831 54.2559C94.1063 54.2405 94.2141 54.2213 94.3065 54.1982C94.3989 54.1712 94.4721 54.1347 94.526 54.0885C94.5799 54.0384 94.6068 53.9672 94.6068 53.8748C94.6068 53.767 94.5857 53.6804 94.5433 53.6149C94.5048 53.5495 94.4528 53.4994 94.3874 53.4648C94.3258 53.4301 94.2546 53.407 94.1737 53.3955C94.0967 53.3839 94.0197 53.3781 93.9427 53.3781C93.7348 53.3781 93.5616 53.4186 93.423 53.4994C93.2844 53.5764 93.2093 53.7246 93.1977 53.9441H92.7069C92.7146 53.7593 92.7531 53.6034 92.8224 53.4763C92.8917 53.3493 92.9841 53.2472 93.0996 53.1702C93.2151 53.0894 93.346 53.0316 93.4923 52.997C93.6424 52.9623 93.8022 52.945 93.9716 52.945C94.1063 52.945 94.2392 52.9546 94.3701 52.9739C94.5048 52.9931 94.6261 53.0336 94.7339 53.0952C94.8417 53.1529 94.9283 53.2357 94.9938 53.3435C95.0592 53.4513 95.0919 53.5918 95.0919 53.7651V55.3012C95.0919 55.4167 95.0977 55.5014 95.1093 55.5553C95.1247 55.6092 95.1709 55.6362 95.2479 55.6362C95.2902 55.6362 95.3403 55.6265 95.398 55.6073V55.9884ZM94.6011 54.4581C94.5395 54.5043 94.4586 54.5389 94.3585 54.562C94.2584 54.5813 94.1525 54.5986 94.0409 54.614C93.9331 54.6255 93.8234 54.6409 93.7117 54.6602C93.6001 54.6756 93.5 54.7025 93.4114 54.741C93.3229 54.7795 93.2497 54.8354 93.192 54.9085C93.1381 54.9778 93.1111 55.0741 93.1111 55.1973C93.1111 55.2781 93.1265 55.3474 93.1573 55.4052C93.192 55.4591 93.2343 55.5033 93.2844 55.538C93.3383 55.5726 93.3999 55.5977 93.4692 55.6131C93.5385 55.6285 93.6116 55.6362 93.6886 55.6362C93.8503 55.6362 93.9889 55.615 94.1044 55.5726C94.2199 55.5264 94.3142 55.4706 94.3874 55.4052C94.4605 55.3359 94.5144 55.2627 94.5491 55.1857C94.5837 55.1049 94.6011 55.0298 94.6011 54.9605V54.4581ZM95.8722 51.8766H96.3631V53.4186H96.3746C96.4555 53.253 96.5825 53.1337 96.7558 53.0605C96.929 52.9835 97.1196 52.945 97.3275 52.945C97.5585 52.945 97.7587 52.9874 97.9281 53.0721C98.1014 53.1568 98.2438 53.2723 98.3555 53.4186C98.471 53.561 98.5576 53.7266 98.6153 53.9152C98.6731 54.1039 98.702 54.3041 98.702 54.5158C98.702 54.7276 98.6731 54.9278 98.6153 55.1164C98.5614 55.3051 98.4767 55.4706 98.3612 55.6131C98.2496 55.7517 98.1071 55.8614 97.9339 55.9422C97.7645 56.0231 97.5662 56.0635 97.3391 56.0635C97.2659 56.0635 97.1831 56.0558 97.0907 56.0404C97.0022 56.025 96.9136 56 96.8251 55.9653C96.7365 55.9307 96.6518 55.8845 96.571 55.8267C96.494 55.7651 96.4285 55.6901 96.3746 55.6015H96.3631V56H95.8722V51.8766ZM98.1822 54.4812C98.1822 54.3426 98.163 54.2078 98.1245 54.0769C98.0898 53.9422 98.034 53.8228 97.957 53.7189C97.8838 53.6149 97.7876 53.5321 97.6682 53.4705C97.5527 53.4089 97.4161 53.3781 97.2582 53.3781C97.0927 53.3781 96.9521 53.4109 96.8366 53.4763C96.7211 53.5418 96.6268 53.6284 96.5537 53.7362C96.4805 53.8401 96.4266 53.9595 96.392 54.0942C96.3612 54.229 96.3458 54.3657 96.3458 54.5043C96.3458 54.6506 96.3631 54.793 96.3977 54.9316C96.4324 55.0664 96.4863 55.1857 96.5594 55.2897C96.6364 55.3936 96.7346 55.4783 96.854 55.5438C96.9733 55.6054 97.1177 55.6362 97.2871 55.6362C97.4565 55.6362 97.597 55.6034 97.7087 55.538C97.8242 55.4725 97.9166 55.3859 97.9859 55.2781C98.0552 55.1703 98.1052 55.0471 98.136 54.9085C98.1668 54.7699 98.1822 54.6275 98.1822 54.4812ZM99.307 51.8766H99.7979V56H99.307V51.8766ZM102.632 54.2213C102.624 54.1058 102.597 53.9961 102.551 53.8921C102.508 53.7882 102.449 53.6996 102.372 53.6265C102.299 53.5495 102.21 53.4898 102.106 53.4474C102.006 53.4012 101.894 53.3781 101.771 53.3781C101.644 53.3781 101.529 53.4012 101.425 53.4474C101.324 53.4898 101.238 53.5495 101.165 53.6265C101.092 53.7035 101.034 53.7939 100.991 53.8979C100.949 53.998 100.924 54.1058 100.916 54.2213H102.632ZM103.105 55.0529C103.04 55.3878 102.895 55.64 102.672 55.8094C102.449 55.9788 102.168 56.0635 101.829 56.0635C101.59 56.0635 101.382 56.025 101.205 55.948C101.032 55.871 100.886 55.7632 100.766 55.6246C100.647 55.486 100.556 55.3205 100.495 55.128C100.437 54.9355 100.404 54.7256 100.397 54.4985C100.397 54.2713 100.431 54.0634 100.501 53.8748C100.57 53.6861 100.666 53.5225 100.789 53.3839C100.916 53.2453 101.065 53.1375 101.234 53.0605C101.407 52.9835 101.596 52.945 101.8 52.945C102.066 52.945 102.285 53.0008 102.458 53.1125C102.635 53.2203 102.776 53.3589 102.88 53.5283C102.988 53.6977 103.061 53.8825 103.099 54.0827C103.142 54.2829 103.159 54.4735 103.151 54.6544H100.916C100.913 54.7853 100.928 54.9104 100.963 55.0298C100.997 55.1453 101.053 55.2492 101.13 55.3416C101.207 55.4302 101.305 55.5014 101.425 55.5553C101.544 55.6092 101.684 55.6362 101.846 55.6362C102.054 55.6362 102.223 55.588 102.354 55.4918C102.489 55.3955 102.578 55.2492 102.62 55.0529H103.105Z" fill="#4E8C38"/>
<path d="M35.9991 77.6496H37.0963C37.4082 77.6496 37.6315 77.5957 37.7662 77.4879C37.9048 77.3762 37.9741 77.2107 37.9741 76.9912C37.9741 76.8449 37.951 76.7294 37.9048 76.6447C37.8586 76.56 37.7951 76.4946 37.7143 76.4484C37.6334 76.4022 37.5391 76.3733 37.4313 76.3617C37.3273 76.3463 37.2157 76.3386 37.0963 76.3386H35.9991V77.6496ZM35.4505 75.8766H36.9462C37.0347 75.8766 37.1291 75.8786 37.2292 75.8824C37.3331 75.8824 37.4351 75.8882 37.5352 75.8997C37.6353 75.9074 37.7277 75.9209 37.8124 75.9402C37.901 75.9594 37.9761 75.9883 38.0377 76.0268C38.1724 76.1076 38.286 76.2193 38.3784 76.3617C38.4746 76.5042 38.5228 76.6794 38.5228 76.8873C38.5228 77.1067 38.4689 77.2973 38.3611 77.459C38.2571 77.6168 38.107 77.7343 37.9106 77.8113V77.8228C38.1647 77.8767 38.3591 77.9922 38.4939 78.1693C38.6286 78.3464 38.696 78.562 38.696 78.8161C38.696 78.9663 38.6691 79.1126 38.6152 79.255C38.5613 79.3975 38.4804 79.5245 38.3726 79.6362C38.2687 79.744 38.1378 79.8325 37.9799 79.9018C37.8259 79.9673 37.6469 80 37.4428 80H35.4505V75.8766ZM35.9991 79.538H37.3735C37.6161 79.538 37.8047 79.4725 37.9395 79.3416C38.0781 79.2107 38.1474 79.0298 38.1474 78.7988C38.1474 78.664 38.1224 78.5524 38.0723 78.4638C38.0223 78.3753 37.9549 78.306 37.8702 78.2559C37.7893 78.202 37.695 78.1655 37.5872 78.1462C37.4794 78.1231 37.3678 78.1116 37.2523 78.1116H35.9991V79.538ZM41.7947 80H41.3327V79.5264H41.3211C41.2172 79.7112 41.0844 79.8479 40.9227 79.9365C40.761 80.0212 40.5704 80.0635 40.3509 80.0635C40.1546 80.0635 39.991 80.0385 39.8601 79.9884C39.7292 79.9345 39.6233 79.8595 39.5424 79.7632C39.4616 79.667 39.4038 79.5534 39.3692 79.4225C39.3384 79.2877 39.323 79.1395 39.323 78.9778V77.0143H39.8139V79.0356C39.8139 79.2204 39.8678 79.3667 39.9756 79.4745C40.0834 79.5823 40.2316 79.6362 40.4202 79.6362C40.5704 79.6362 40.6994 79.6131 40.8072 79.5669C40.9188 79.5207 41.0112 79.4552 41.0844 79.3705C41.1575 79.2858 41.2114 79.1876 41.2461 79.076C41.2846 78.9605 41.3038 78.8354 41.3038 78.7006V77.0143H41.7947V80ZM42.89 78.5331C42.89 78.6717 42.9073 78.8084 42.942 78.9432C42.9805 79.0741 43.0363 79.1915 43.1095 79.2954C43.1865 79.3994 43.2827 79.4822 43.3982 79.5438C43.5176 79.6054 43.6562 79.6362 43.814 79.6362C43.9796 79.6362 44.1201 79.6034 44.2356 79.538C44.3511 79.4725 44.4454 79.3878 44.5186 79.2839C44.5917 79.1761 44.6437 79.0548 44.6745 78.9201C44.7091 78.7853 44.7265 78.6486 44.7265 78.51C44.7265 78.3637 44.7091 78.2232 44.6745 78.0885C44.6398 77.9499 44.584 77.8286 44.507 77.7246C44.4339 77.6207 44.3376 77.5379 44.2183 77.4763C44.0989 77.4109 43.9545 77.3781 43.7851 77.3781C43.6196 77.3781 43.4791 77.4109 43.3636 77.4763C43.2481 77.5418 43.1557 77.6284 43.0864 77.7362C43.0171 77.844 42.967 77.9672 42.9362 78.1058C42.9054 78.2444 42.89 78.3868 42.89 78.5331ZM45.2 80H44.7091V79.5957H44.6976C44.6167 79.7613 44.4897 79.8806 44.3164 79.9538C44.1432 80.027 43.9526 80.0635 43.7447 80.0635C43.5137 80.0635 43.3116 80.0212 43.1383 79.9365C42.9689 79.8518 42.8265 79.7382 42.711 79.5957C42.5993 79.4533 42.5146 79.2877 42.4569 79.0991C42.3991 78.9104 42.3703 78.7102 42.3703 78.4985C42.3703 78.2867 42.3972 78.0865 42.4511 77.8979C42.5089 77.7092 42.5936 77.5456 42.7052 77.407C42.8207 77.2646 42.9632 77.1529 43.1326 77.0721C43.3058 76.9874 43.506 76.945 43.7332 76.945C43.8102 76.945 43.8929 76.9527 43.9815 76.9681C44.07 76.9835 44.1586 77.0105 44.2471 77.049C44.3357 77.0836 44.4185 77.1317 44.4955 77.1933C44.5763 77.2511 44.6437 77.3242 44.6976 77.4128H44.7091V75.8766H45.2V80ZM48.5309 79.7459C48.5309 80.2349 48.4192 80.6006 48.1959 80.8432C47.9726 81.0857 47.6223 81.207 47.1449 81.207C47.0063 81.207 46.8638 81.1916 46.7175 81.1608C46.5751 81.13 46.4442 81.0799 46.3248 81.0106C46.2093 80.9413 46.1131 80.8509 46.0361 80.7392C45.9591 80.6276 45.9167 80.4909 45.909 80.3292H46.3999C46.4037 80.4177 46.4307 80.4928 46.4807 80.5544C46.5346 80.616 46.5982 80.6661 46.6713 80.7046C46.7483 80.7431 46.8311 80.77 46.9196 80.7854C47.0082 80.8047 47.0929 80.8143 47.1737 80.8143C47.3354 80.8143 47.4721 80.7854 47.5838 80.7277C47.6954 80.6738 47.7878 80.5968 47.861 80.4967C47.9341 80.4004 47.9861 80.283 48.0169 80.1444C48.0515 80.0058 48.0689 79.8537 48.0689 79.6881V79.4918H48.0573C47.9726 79.6766 47.8436 79.8133 47.6704 79.9018C47.501 79.9865 47.32 80.0289 47.1275 80.0289C46.9042 80.0289 46.7098 79.9884 46.5443 79.9076C46.3787 79.8267 46.2401 79.7189 46.1285 79.5842C46.0168 79.4456 45.9321 79.2858 45.8744 79.1049C45.8205 78.9201 45.7935 78.7256 45.7935 78.5216C45.7935 78.3445 45.8166 78.1635 45.8628 77.9787C45.909 77.7901 45.986 77.6207 46.0938 77.4705C46.2016 77.3165 46.3441 77.1914 46.5212 77.0952C46.6983 76.9951 46.9158 76.945 47.1737 76.945C47.3624 76.945 47.5356 76.9874 47.6935 77.0721C47.8513 77.1529 47.9745 77.2761 48.0631 77.4417H48.0689V77.0143H48.5309V79.7459ZM47.1564 79.6015C47.3181 79.6015 47.4548 79.5688 47.5664 79.5033C47.6819 79.434 47.7743 79.3455 47.8436 79.2377C47.9129 79.126 47.963 79.0009 47.9938 78.8623C48.0284 78.7237 48.0458 78.5851 48.0458 78.4465C48.0458 78.3156 48.0304 78.1866 47.9996 78.0596C47.9688 77.9325 47.9187 77.819 47.8494 77.7189C47.784 77.6149 47.6973 77.5321 47.5895 77.4705C47.4817 77.4089 47.3508 77.3781 47.1968 77.3781C47.039 77.3781 46.9042 77.4089 46.7926 77.4705C46.6809 77.5283 46.5885 77.6072 46.5154 77.7073C46.4461 77.8074 46.3941 77.9229 46.3595 78.0538C46.3287 78.1847 46.3133 78.3214 46.3133 78.4638C46.3133 78.5986 46.3267 78.7333 46.3537 78.8681C46.3806 79.0028 46.4268 79.126 46.4923 79.2377C46.5577 79.3455 46.6444 79.434 46.7522 79.5033C46.86 79.5688 46.9947 79.6015 47.1564 79.6015ZM51.3446 78.2213C51.3369 78.1058 51.3099 77.9961 51.2637 77.8921C51.2214 77.7882 51.1617 77.6996 51.0847 77.6265C51.0115 77.5495 50.923 77.4898 50.819 77.4474C50.7189 77.4012 50.6073 77.3781 50.4841 77.3781C50.357 77.3781 50.2415 77.4012 50.1376 77.4474C50.0375 77.4898 49.9509 77.5495 49.8777 77.6265C49.8046 77.7035 49.7468 77.7939 49.7045 77.8979C49.6621 77.998 49.6371 78.1058 49.6294 78.2213H51.3446ZM51.8181 79.0529C51.7527 79.3878 51.6083 79.64 51.385 79.8094C51.1617 79.9788 50.8806 80.0635 50.5418 80.0635C50.3031 80.0635 50.0952 80.025 49.9181 79.948C49.7449 79.871 49.5986 79.7632 49.4792 79.6246C49.3599 79.486 49.2694 79.3205 49.2078 79.128C49.1501 78.9355 49.1173 78.7256 49.1096 78.4985C49.1096 78.2713 49.1443 78.0634 49.2136 77.8748C49.2829 77.6861 49.3791 77.5225 49.5023 77.3839C49.6294 77.2453 49.7776 77.1375 49.947 77.0605C50.1203 76.9835 50.3089 76.945 50.513 76.945C50.7786 76.945 50.9981 77.0008 51.1713 77.1125C51.3484 77.2203 51.4889 77.3589 51.5929 77.5283C51.7007 77.6977 51.7738 77.8825 51.8123 78.0827C51.8547 78.2829 51.872 78.4735 51.8643 78.6544H49.6294C49.6255 78.7853 49.6409 78.9104 49.6756 79.0298C49.7102 79.1453 49.7661 79.2492 49.8431 79.3416C49.9201 79.4302 50.0182 79.5014 50.1376 79.5553C50.2569 79.6092 50.3975 79.6362 50.5592 79.6362C50.7671 79.6362 50.9365 79.588 51.0674 79.4918C51.2021 79.3955 51.2907 79.2492 51.333 79.0529H51.8181ZM53.0546 77.0143H53.6494V77.4474H53.0546V79.3012C53.0546 79.359 53.0584 79.4052 53.0661 79.4398C53.0777 79.4745 53.0969 79.5014 53.1239 79.5207C53.1508 79.5399 53.1874 79.5534 53.2336 79.5611C53.2837 79.5649 53.3472 79.5669 53.4242 79.5669H53.6494V80H53.274C53.147 80 53.0373 79.9923 52.9449 79.9769C52.8563 79.9576 52.7832 79.9249 52.7254 79.8787C52.6715 79.8325 52.6311 79.7671 52.6041 79.6824C52.5772 79.5977 52.5637 79.486 52.5637 79.3474V77.4474H52.0555V77.0143H52.5637V76.1192H53.0546V77.0143ZM56.6105 81.1377C56.4719 80.9221 56.3468 80.7065 56.2352 80.4909C56.1235 80.2791 56.0273 80.0635 55.9464 79.8441C55.8694 79.6246 55.8097 79.3994 55.7674 79.1684C55.725 78.9374 55.7039 78.6948 55.7039 78.4407C55.7039 77.9864 55.7789 77.5283 55.9291 77.0663C56.0831 76.6043 56.3102 76.175 56.6105 75.7785H56.9859C56.7087 76.2174 56.5124 76.6524 56.3969 77.0836C56.2814 77.5148 56.2236 77.9672 56.2236 78.4407C56.2236 78.9258 56.2814 79.3859 56.3969 79.821C56.5162 80.256 56.7126 80.6949 56.9859 81.1377H56.6105ZM57.5622 78.741C57.5699 78.999 57.6488 79.203 57.799 79.3532C57.953 79.5033 58.1455 79.5977 58.3765 79.6362V78.1058C58.1724 78.0557 57.9953 78.0018 57.8452 77.9441C57.6989 77.8825 57.5757 77.8113 57.4756 77.7304C57.3793 77.6457 57.3081 77.5437 57.2619 77.4243C57.2157 77.305 57.1926 77.1606 57.1926 76.9912C57.1926 76.818 57.2234 76.6601 57.285 76.5177C57.3466 76.3714 57.4294 76.2462 57.5333 76.1423C57.6411 76.0345 57.7663 75.9498 57.9087 75.8882C58.055 75.8266 58.2109 75.79 58.3765 75.7785V75.3973H58.6941V75.7842C59.006 75.8227 59.2543 75.9382 59.4391 76.1307C59.6239 76.3232 59.7548 76.5889 59.8318 76.9277H59.3409C59.2639 76.5465 59.0483 76.3232 58.6941 76.2578V77.6784L59.0406 77.7708C59.1176 77.7901 59.2081 77.8247 59.312 77.8748C59.416 77.921 59.5161 77.9864 59.6123 78.0711C59.7086 78.1558 59.7894 78.2617 59.8549 78.3888C59.9242 78.5158 59.9588 78.6679 59.9588 78.845C59.9588 79.0336 59.9261 79.2011 59.8607 79.3474C59.7991 79.4937 59.7124 79.6208 59.6008 79.7286C59.4891 79.8325 59.3563 79.9153 59.2023 79.9769C59.0483 80.0385 58.8789 80.077 58.6941 80.0924V80.566H58.3765V80.0924C57.9915 80.0539 57.6854 79.9211 57.4583 79.6939C57.2311 79.4629 57.1021 79.1453 57.0713 78.741H57.5622ZM58.6941 79.6362C58.8019 79.6285 58.9001 79.6092 58.9886 79.5784C59.081 79.5476 59.16 79.5033 59.2254 79.4456C59.2947 79.384 59.3467 79.3089 59.3813 79.2204C59.4198 79.128 59.4391 79.0202 59.4391 78.897C59.4391 78.7853 59.4198 78.6929 59.3813 78.6198C59.3428 78.5428 59.2909 78.4773 59.2254 78.4234C59.16 78.3695 59.081 78.3252 58.9886 78.2906C58.8962 78.2521 58.7981 78.2174 58.6941 78.1866V79.6362ZM58.3765 76.2405C58.1917 76.2597 58.0338 76.3271 57.9029 76.4426C57.7759 76.5542 57.7124 76.7198 57.7124 76.9392C57.7124 77.0393 57.7278 77.126 57.7586 77.1991C57.7932 77.2684 57.8394 77.3281 57.8972 77.3781C57.9588 77.4243 58.03 77.4648 58.1108 77.4994C58.1917 77.5341 58.2802 77.5649 58.3765 77.5918V76.2405ZM60.0839 81.1377C60.3573 80.7026 60.5517 80.2695 60.6672 79.8383C60.7827 79.4032 60.8405 78.9509 60.8405 78.4812C60.8405 77.9961 60.7808 77.536 60.6614 77.1009C60.5459 76.662 60.3534 76.2212 60.0839 75.7785H60.4535C60.5921 75.9941 60.7173 76.2097 60.8289 76.4253C60.9406 76.637 61.0349 76.8545 61.1119 77.0778C61.1927 77.2973 61.2543 77.5225 61.2967 77.7535C61.339 77.9845 61.3602 78.2271 61.3602 78.4812C61.3602 78.9355 61.2832 79.3936 61.1292 79.8556C60.9791 80.3138 60.7538 80.7411 60.4535 81.1377H60.0839Z" fill="#2D690D"/>
<path d="M92 78C92 82.4183 88.4183 86 84 86H74C69.5817 86 66 82.4183 66 78C66 73.5817 69.5817 70 74 70H84C88.4183 70 92 73.5817 92 78Z" fill="#F9F9F9"/>
<path d="M74.2541 77.855C74.2426 77.6471 74.2637 77.4546 74.3176 77.2775C74.3715 77.1004 74.4543 76.9484 74.566 76.8213C74.6815 76.6904 74.8239 76.5884 74.9933 76.5152C75.1627 76.4421 75.3552 76.4055 75.5708 76.4055C75.7479 76.4055 75.9135 76.4325 76.0675 76.4864C76.2253 76.5364 76.362 76.6115 76.4775 76.7116C76.593 76.8078 76.6835 76.9291 76.7489 77.0754C76.8182 77.2217 76.8529 77.3911 76.8529 77.5836C76.8529 77.7646 76.824 77.9243 76.7662 78.0629C76.7123 78.2015 76.6392 78.3267 76.5468 78.4383C76.4544 78.5461 76.3485 78.6443 76.2292 78.7328C76.1098 78.8214 75.9866 78.9061 75.8596 78.9869C75.7325 79.0639 75.6055 79.1409 75.4784 79.2179C75.3514 79.2911 75.2339 79.37 75.1261 79.4547C75.0222 79.5394 74.9317 79.6318 74.8547 79.7319C74.7816 79.8282 74.7334 79.9398 74.7103 80.0669H76.8124V80.5H74.1386C74.1579 80.2574 74.2002 80.0515 74.2657 79.8821C74.335 79.7088 74.4216 79.5587 74.5255 79.4316C74.6295 79.3046 74.7469 79.1929 74.8778 79.0967C75.0087 79.0004 75.1454 78.9099 75.2878 78.8252C75.4611 78.7174 75.6132 78.6193 75.7441 78.5307C75.875 78.4383 75.9828 78.3459 76.0675 78.2535C76.156 78.1611 76.2215 78.061 76.2638 77.9532C76.31 77.8454 76.3331 77.7203 76.3331 77.5778C76.3331 77.4662 76.3119 77.3661 76.2696 77.2775C76.2272 77.1851 76.1695 77.1062 76.0963 77.0408C76.027 76.9753 75.9443 76.9253 75.848 76.8906C75.7518 76.856 75.6497 76.8386 75.5419 76.8386C75.3995 76.8386 75.2763 76.8694 75.1723 76.931C75.0722 76.9888 74.9895 77.0658 74.924 77.162C74.8586 77.2583 74.8104 77.368 74.7796 77.4912C74.7527 77.6106 74.7411 77.7318 74.745 77.855H74.2541ZM77.9713 78.4845C77.9713 78.6385 77.9751 78.8118 77.9828 79.0043C77.9944 79.1929 78.0252 79.3719 78.0752 79.5413C78.1291 79.7069 78.2138 79.8474 78.3293 79.9629C78.4448 80.0784 78.6065 80.1362 78.8144 80.1362C79.0223 80.1362 79.184 80.0784 79.2995 79.9629C79.415 79.8474 79.4978 79.7069 79.5478 79.5413C79.6017 79.3719 79.6325 79.1929 79.6402 79.0043C79.6518 78.8118 79.6576 78.6385 79.6576 78.4845C79.6576 78.3844 79.6556 78.2747 79.6518 78.1553C79.6518 78.0321 79.6422 77.9109 79.6229 77.7915C79.6075 77.6683 79.5825 77.549 79.5478 77.4335C79.517 77.318 79.4689 77.2179 79.4035 77.1332C79.3419 77.0446 79.2629 76.9734 79.1667 76.9195C79.0704 76.8656 78.953 76.8386 78.8144 76.8386C78.6758 76.8386 78.5584 76.8656 78.4621 76.9195C78.3659 76.9734 78.285 77.0446 78.2196 77.1332C78.158 77.2179 78.1099 77.318 78.0752 77.4335C78.0444 77.549 78.0194 77.6683 78.0001 77.7915C77.9847 77.9109 77.9751 78.0321 77.9713 78.1553C77.9713 78.2747 77.9713 78.3844 77.9713 78.4845ZM77.4515 78.4903C77.4515 78.3401 77.4554 78.1842 77.4631 78.0225C77.4708 77.8608 77.49 77.703 77.5208 77.549C77.5516 77.395 77.5959 77.2487 77.6536 77.1101C77.7114 76.9715 77.7903 76.8502 77.8904 76.7462C77.9905 76.6423 78.1156 76.5595 78.2658 76.4979C78.4198 76.4363 78.6027 76.4055 78.8144 76.4055C79.0262 76.4055 79.2071 76.4363 79.3573 76.4979C79.5113 76.5595 79.6383 76.6423 79.7384 76.7462C79.8385 76.8502 79.9174 76.9715 79.9752 77.1101C80.0329 77.2487 80.0772 77.395 80.108 77.549C80.1388 77.703 80.1581 77.8608 80.1658 78.0225C80.1735 78.1842 80.1773 78.3401 80.1773 78.4903C80.1773 78.6404 80.1735 78.7964 80.1658 78.9581C80.1581 79.1198 80.1388 79.2776 80.108 79.4316C80.0772 79.5856 80.0329 79.7319 79.9752 79.8705C79.9174 80.0053 79.8385 80.1246 79.7384 80.2286C79.6383 80.3325 79.5132 80.4153 79.363 80.4769C79.2129 80.5347 79.03 80.5635 78.8144 80.5635C78.6027 80.5635 78.4198 80.5347 78.2658 80.4769C78.1156 80.4153 77.9905 80.3325 77.8904 80.2286C77.7903 80.1246 77.7114 80.0053 77.6536 79.8705C77.5959 79.7319 77.5516 79.5856 77.5208 79.4316C77.49 79.2776 77.4708 79.1198 77.4631 78.9581C77.4554 78.7964 77.4515 78.6404 77.4515 78.4903ZM81.1802 78.4845C81.1802 78.6385 81.1841 78.8118 81.1918 79.0043C81.2033 79.1929 81.2341 79.3719 81.2842 79.5413C81.3381 79.7069 81.4228 79.8474 81.5383 79.9629C81.6538 80.0784 81.8155 80.1362 82.0234 80.1362C82.2313 80.1362 82.393 80.0784 82.5085 79.9629C82.624 79.8474 82.7067 79.7069 82.7568 79.5413C82.8107 79.3719 82.8415 79.1929 82.8492 79.0043C82.8607 78.8118 82.8665 78.6385 82.8665 78.4845C82.8665 78.3844 82.8646 78.2747 82.8607 78.1553C82.8607 78.0321 82.8511 77.9109 82.8319 77.7915C82.8165 77.6683 82.7914 77.549 82.7568 77.4335C82.726 77.318 82.6779 77.2179 82.6124 77.1332C82.5508 77.0446 82.4719 76.9734 82.3756 76.9195C82.2794 76.8656 82.162 76.8386 82.0234 76.8386C81.8848 76.8386 81.7673 76.8656 81.6711 76.9195C81.5748 76.9734 81.494 77.0446 81.4285 77.1332C81.3669 77.2179 81.3188 77.318 81.2842 77.4335C81.2534 77.549 81.2283 77.6683 81.2091 77.7915C81.1937 77.9109 81.1841 78.0321 81.1802 78.1553C81.1802 78.2747 81.1802 78.3844 81.1802 78.4845ZM80.6605 78.4903C80.6605 78.3401 80.6643 78.1842 80.672 78.0225C80.6797 77.8608 80.699 77.703 80.7298 77.549C80.7606 77.395 80.8048 77.2487 80.8626 77.1101C80.9203 76.9715 80.9993 76.8502 81.0994 76.7462C81.1995 76.6423 81.3246 76.5595 81.4747 76.4979C81.6287 76.4363 81.8116 76.4055 82.0234 76.4055C82.2351 76.4055 82.4161 76.4363 82.5662 76.4979C82.7202 76.5595 82.8473 76.6423 82.9474 76.7462C83.0475 76.8502 83.1264 76.9715 83.1841 77.1101C83.2419 77.2487 83.2862 77.395 83.317 77.549C83.3478 77.703 83.367 77.8608 83.3747 78.0225C83.3824 78.1842 83.3863 78.3401 83.3863 78.4903C83.3863 78.6404 83.3824 78.7964 83.3747 78.9581C83.367 79.1198 83.3478 79.2776 83.317 79.4316C83.2862 79.5856 83.2419 79.7319 83.1841 79.8705C83.1264 80.0053 83.0475 80.1246 82.9474 80.2286C82.8473 80.3325 82.7221 80.4153 82.572 80.4769C82.4218 80.5347 82.239 80.5635 82.0234 80.5635C81.8116 80.5635 81.6287 80.5347 81.4747 80.4769C81.3246 80.4153 81.1995 80.3325 81.0994 80.2286C80.9993 80.1246 80.9203 80.0053 80.8626 79.8705C80.8048 79.7319 80.7606 79.5856 80.7298 79.4316C80.699 79.2776 80.6797 79.1198 80.672 78.9581C80.6643 78.7964 80.6605 78.6404 80.6605 78.4903Z" fill="#4E8C38"/>
<path d="M35.4505 99.8766H35.9991V101.65H38.1705V99.8766H38.7191V104H38.1705V102.112H35.9991V104H35.4505V99.8766ZM39.8954 102.51C39.8954 102.691 39.9185 102.853 39.9647 102.995C40.0147 103.134 40.0821 103.251 40.1668 103.347C40.2515 103.44 40.3497 103.511 40.4613 103.561C40.5768 103.611 40.6981 103.636 40.8251 103.636C40.9522 103.636 41.0715 103.611 41.1832 103.561C41.2987 103.511 41.3988 103.44 41.4835 103.347C41.5682 103.251 41.6336 103.134 41.6798 102.995C41.7299 102.853 41.7549 102.691 41.7549 102.51C41.7549 102.329 41.7299 102.169 41.6798 102.031C41.6336 101.888 41.5682 101.769 41.4835 101.673C41.3988 101.576 41.2987 101.503 41.1832 101.453C41.0715 101.403 40.9522 101.378 40.8251 101.378C40.6981 101.378 40.5768 101.403 40.4613 101.453C40.3497 101.503 40.2515 101.576 40.1668 101.673C40.0821 101.769 40.0147 101.888 39.9647 102.031C39.9185 102.169 39.8954 102.329 39.8954 102.51ZM39.3756 102.51C39.3756 102.291 39.4064 102.087 39.468 101.898C39.5296 101.705 39.622 101.54 39.7452 101.401C39.8684 101.259 40.0205 101.147 40.2014 101.066C40.3824 100.985 40.5903 100.945 40.8251 100.945C41.0638 100.945 41.2717 100.985 41.4488 101.066C41.6298 101.147 41.7819 101.259 41.9051 101.401C42.0283 101.54 42.1207 101.705 42.1823 101.898C42.2439 102.087 42.2747 102.291 42.2747 102.51C42.2747 102.729 42.2439 102.934 42.1823 103.122C42.1207 103.311 42.0283 103.476 41.9051 103.619C41.7819 103.757 41.6298 103.867 41.4488 103.948C41.2717 104.025 41.0638 104.064 40.8251 104.064C40.5903 104.064 40.3824 104.025 40.2014 103.948C40.0205 103.867 39.8684 103.757 39.7452 103.619C39.622 103.476 39.5296 103.311 39.468 103.122C39.4064 102.934 39.3756 102.729 39.3756 102.51ZM45.3251 104H44.8631V103.526H44.8516C44.7476 103.711 44.6148 103.848 44.4531 103.936C44.2914 104.021 44.1008 104.064 43.8814 104.064C43.685 104.064 43.5214 104.039 43.3905 103.988C43.2596 103.935 43.1537 103.859 43.0729 103.763C42.992 103.667 42.9343 103.553 42.8996 103.422C42.8688 103.288 42.8534 103.14 42.8534 102.978V101.014H43.3443V103.036C43.3443 103.22 43.3982 103.367 43.506 103.474C43.6138 103.582 43.762 103.636 43.9507 103.636C44.1008 103.636 44.2298 103.613 44.3376 103.567C44.4492 103.521 44.5416 103.455 44.6148 103.371C44.6879 103.286 44.7418 103.188 44.7765 103.076C44.815 102.96 44.8342 102.835 44.8342 102.701V101.014H45.3251V104ZM46.045 101.014H46.507V101.644H46.5186C46.6379 101.401 46.7842 101.222 46.9575 101.107C47.1307 100.991 47.3502 100.937 47.6158 100.945V101.465C47.4195 101.465 47.252 101.492 47.1134 101.546C46.9748 101.6 46.8632 101.678 46.7785 101.782C46.6938 101.886 46.6322 102.013 46.5937 102.164C46.5552 102.31 46.5359 102.479 46.5359 102.672V104H46.045V101.014ZM48.2858 103.059C48.2896 103.166 48.3147 103.259 48.3609 103.336C48.4071 103.409 48.4667 103.469 48.5399 103.515C48.6169 103.557 48.7016 103.588 48.794 103.607C48.8902 103.627 48.9884 103.636 49.0885 103.636C49.1655 103.636 49.2464 103.63 49.3311 103.619C49.4158 103.607 49.4928 103.586 49.5621 103.555C49.6352 103.525 49.6949 103.48 49.7411 103.422C49.7873 103.361 49.8104 103.284 49.8104 103.191C49.8104 103.064 49.7623 102.968 49.666 102.903C49.5698 102.837 49.4485 102.785 49.3022 102.747C49.1597 102.704 49.0038 102.668 48.8344 102.637C48.665 102.602 48.5072 102.556 48.3609 102.498C48.2184 102.437 48.0991 102.352 48.0028 102.244C47.9066 102.137 47.8584 101.986 47.8584 101.794C47.8584 101.644 47.8912 101.515 47.9566 101.407C48.0259 101.299 48.1125 101.213 48.2165 101.147C48.3243 101.078 48.4436 101.028 48.5745 100.997C48.7093 100.962 48.8421 100.945 48.973 100.945C49.1424 100.945 49.2983 100.96 49.4408 100.991C49.5832 101.018 49.7084 101.068 49.8162 101.141C49.9278 101.211 50.0164 101.307 50.0818 101.43C50.1473 101.549 50.1858 101.7 50.1973 101.881H49.7064C49.6987 101.784 49.6737 101.705 49.6314 101.644C49.589 101.578 49.5351 101.526 49.4697 101.488C49.4042 101.449 49.3311 101.422 49.2502 101.407C49.1732 101.388 49.0943 101.378 49.0134 101.378C48.9403 101.378 48.8652 101.384 48.7882 101.395C48.7151 101.407 48.6477 101.428 48.5861 101.459C48.5245 101.486 48.4744 101.524 48.4359 101.574C48.3974 101.621 48.3782 101.682 48.3782 101.759C48.3782 101.844 48.4071 101.915 48.4648 101.973C48.5264 102.027 48.6034 102.073 48.6958 102.112C48.7882 102.146 48.8922 102.177 49.0077 102.204C49.1232 102.227 49.2387 102.252 49.3542 102.279C49.4774 102.306 49.5967 102.339 49.7122 102.377C49.8316 102.416 49.9355 102.468 50.0241 102.533C50.1165 102.595 50.1896 102.674 50.2435 102.77C50.3013 102.866 50.3301 102.986 50.3301 103.128C50.3301 103.309 50.2916 103.459 50.2146 103.578C50.1415 103.698 50.0433 103.794 49.9201 103.867C49.8008 103.94 49.6641 103.99 49.5101 104.017C49.3599 104.048 49.2098 104.064 49.0596 104.064C48.8941 104.064 48.7362 104.046 48.5861 104.012C48.4359 103.977 48.3031 103.921 48.1876 103.844C48.0721 103.763 47.9797 103.659 47.9104 103.532C47.8411 103.401 47.8026 103.243 47.7949 103.059H48.2858ZM52.4976 101.014H52.9885V101.419H53C53.0809 101.253 53.2079 101.134 53.3812 101.061C53.5544 100.984 53.745 100.945 53.9529 100.945C54.1839 100.945 54.3841 100.987 54.5535 101.072C54.7268 101.157 54.8692 101.272 54.9809 101.419C55.0964 101.561 55.183 101.727 55.2407 101.915C55.2985 102.104 55.3274 102.304 55.3274 102.516C55.3274 102.728 55.2985 102.928 55.2407 103.116C55.1868 103.305 55.1021 103.471 54.9866 103.613C54.875 103.752 54.7325 103.861 54.5593 103.942C54.3899 104.023 54.1916 104.064 53.9645 104.064C53.8913 104.064 53.8085 104.056 53.7161 104.04C53.6276 104.025 53.539 104 53.4505 103.965C53.3619 103.931 53.2772 103.884 53.1964 103.827C53.1194 103.765 53.0539 103.69 53 103.602H52.9885V105.138H52.4976V101.014ZM54.8076 102.481C54.8076 102.343 54.7884 102.208 54.7499 102.077C54.7152 101.942 54.6594 101.823 54.5824 101.719C54.5092 101.615 54.413 101.532 54.2936 101.471C54.1781 101.409 54.0415 101.378 53.8836 101.378C53.7181 101.378 53.5775 101.411 53.462 101.476C53.3465 101.542 53.2522 101.628 53.1791 101.736C53.1059 101.84 53.052 101.959 53.0174 102.094C52.9866 102.229 52.9712 102.366 52.9712 102.504C52.9712 102.651 52.9885 102.793 53.0231 102.932C53.0578 103.066 53.1117 103.186 53.1848 103.29C53.2618 103.394 53.36 103.478 53.4794 103.544C53.5987 103.605 53.7431 103.636 53.9125 103.636C54.0819 103.636 54.2224 103.603 54.3341 103.538C54.4496 103.473 54.542 103.386 54.6113 103.278C54.6806 103.17 54.7306 103.047 54.7614 102.909C54.7922 102.77 54.8076 102.627 54.8076 102.481ZM57.9768 102.221C57.9691 102.106 57.9421 101.996 57.8959 101.892C57.8536 101.788 57.7939 101.7 57.7169 101.626C57.6438 101.549 57.5552 101.49 57.4513 101.447C57.3512 101.401 57.2395 101.378 57.1163 101.378C56.9893 101.378 56.8738 101.401 56.7698 101.447C56.6697 101.49 56.5831 101.549 56.5099 101.626C56.4368 101.703 56.379 101.794 56.3367 101.898C56.2943 101.998 56.2693 102.106 56.2616 102.221H57.9768ZM58.4503 103.053C58.3849 103.388 58.2405 103.64 58.0172 103.809C57.7939 103.979 57.5129 104.064 57.1741 104.064C56.9354 104.064 56.7275 104.025 56.5504 103.948C56.3771 103.871 56.2308 103.763 56.1115 103.625C55.9921 103.486 55.9016 103.32 55.84 103.128C55.7823 102.935 55.7496 102.726 55.7419 102.498C55.7419 102.271 55.7765 102.063 55.8458 101.875C55.9151 101.686 56.0114 101.523 56.1346 101.384C56.2616 101.245 56.4098 101.138 56.5792 101.061C56.7525 100.984 56.9411 100.945 57.1452 100.945C57.4108 100.945 57.6303 101.001 57.8035 101.112C57.9806 101.22 58.1212 101.359 58.2251 101.528C58.3329 101.698 58.4061 101.882 58.4446 102.083C58.4869 102.283 58.5042 102.473 58.4965 102.654H56.2616C56.2578 102.785 56.2732 102.91 56.3078 103.03C56.3425 103.145 56.3983 103.249 56.4753 103.342C56.5523 103.43 56.6505 103.501 56.7698 103.555C56.8892 103.609 57.0297 103.636 57.1914 103.636C57.3993 103.636 57.5687 103.588 57.6996 103.492C57.8343 103.396 57.9229 103.249 57.9652 103.053H58.4503ZM58.988 101.014H59.45V101.644H59.4616C59.5809 101.401 59.7272 101.222 59.9005 101.107C60.0737 100.991 60.2932 100.937 60.5588 100.945V101.465C60.3625 101.465 60.195 101.492 60.0564 101.546C59.9178 101.6 59.8062 101.678 59.7215 101.782C59.6368 101.886 59.5752 102.013 59.5367 102.164C59.4982 102.31 59.4789 102.479 59.4789 102.672V104H58.988V101.014ZM65.4926 104H64.9728L64.3665 101.626H64.3549L63.7543 104H63.223L62.2644 101.014H62.8072L63.4829 103.457H63.4944L64.095 101.014H64.6321L65.2558 103.457H65.2674L65.9373 101.014H66.4455L65.4926 104ZM68.9854 102.221C68.9777 102.106 68.9507 101.996 68.9045 101.892C68.8622 101.788 68.8025 101.7 68.7255 101.626C68.6524 101.549 68.5638 101.49 68.4599 101.447C68.3598 101.401 68.2481 101.378 68.1249 101.378C67.9979 101.378 67.8824 101.401 67.7784 101.447C67.6783 101.49 67.5917 101.549 67.5185 101.626C67.4454 101.703 67.3876 101.794 67.3453 101.898C67.3029 101.998 67.2779 102.106 67.2702 102.221H68.9854ZM69.4589 103.053C69.3935 103.388 69.2491 103.64 69.0258 103.809C68.8025 103.979 68.5215 104.064 68.1827 104.064C67.944 104.064 67.7361 104.025 67.559 103.948C67.3857 103.871 67.2394 103.763 67.1201 103.625C67.0007 103.486 66.9102 103.32 66.8486 103.128C66.7909 102.935 66.7582 102.726 66.7505 102.498C66.7505 102.271 66.7851 102.063 66.8544 101.875C66.9237 101.686 67.02 101.523 67.1432 101.384C67.2702 101.245 67.4184 101.138 67.5878 101.061C67.7611 100.984 67.9497 100.945 68.1538 100.945C68.4194 100.945 68.6389 101.001 68.8121 101.112C68.9892 101.22 69.1298 101.359 69.2337 101.528C69.3415 101.698 69.4147 101.882 69.4532 102.083C69.4955 102.283 69.5128 102.473 69.5051 102.654H67.2702C67.2664 102.785 67.2818 102.91 67.3164 103.03C67.3511 103.145 67.4069 103.249 67.4839 103.342C67.5609 103.43 67.6591 103.501 67.7784 103.555C67.8978 103.609 68.0383 103.636 68.2 103.636C68.4079 103.636 68.5773 103.588 68.7082 103.492C68.8429 103.396 68.9315 103.249 68.9738 103.053H69.4589ZM72.0872 102.221C72.0795 102.106 72.0525 101.996 72.0063 101.892C71.964 101.788 71.9043 101.7 71.8273 101.626C71.7542 101.549 71.6656 101.49 71.5617 101.447C71.4616 101.401 71.3499 101.378 71.2267 101.378C71.0997 101.378 70.9842 101.401 70.8802 101.447C70.7801 101.49 70.6935 101.549 70.6203 101.626C70.5472 101.703 70.4894 101.794 70.4471 101.898C70.4047 101.998 70.3797 102.106 70.372 102.221H72.0872ZM72.5607 103.053C72.4953 103.388 72.3509 103.64 72.1276 103.809C71.9043 103.979 71.6233 104.064 71.2845 104.064C71.0458 104.064 70.8379 104.025 70.6608 103.948C70.4875 103.871 70.3412 103.763 70.2219 103.625C70.1025 103.486 70.012 103.32 69.9504 103.128C69.8927 102.935 69.86 102.726 69.8523 102.498C69.8523 102.271 69.8869 102.063 69.9562 101.875C70.0255 101.686 70.1218 101.523 70.245 101.384C70.372 101.245 70.5202 101.138 70.6896 101.061C70.8629 100.984 71.0515 100.945 71.2556 100.945C71.5212 100.945 71.7407 101.001 71.9139 101.112C72.091 101.22 72.2316 101.359 72.3355 101.528C72.4433 101.698 72.5165 101.882 72.555 102.083C72.5973 102.283 72.6146 102.473 72.6069 102.654H70.372C70.3682 102.785 70.3836 102.91 70.4182 103.03C70.4529 103.145 70.5087 103.249 70.5857 103.342C70.6627 103.43 70.7609 103.501 70.8802 103.555C70.9996 103.609 71.1401 103.636 71.3018 103.636C71.5097 103.636 71.6791 103.588 71.81 103.492C71.9447 103.396 72.0333 103.249 72.0756 103.053H72.5607ZM73.1446 99.8766H73.6355V102.319L74.9984 101.014H75.6568L74.4729 102.1L75.7434 104H75.1197L74.0975 102.441L73.6355 102.868V104H73.1446V99.8766ZM76.9998 103.359H77.6408V104H76.9998V103.359ZM76.0584 101.164C76.0546 100.968 76.0815 100.785 76.1393 100.616C76.2009 100.446 76.2875 100.3 76.3992 100.177C76.5108 100.05 76.6475 99.9517 76.8092 99.8824C76.9709 99.8131 77.1518 99.7785 77.352 99.7785C77.533 99.7785 77.6966 99.8054 77.8429 99.8593C77.9931 99.9094 78.122 99.9844 78.2298 100.085C78.3376 100.181 78.4204 100.3 78.4782 100.443C78.5398 100.585 78.5706 100.749 78.5706 100.933C78.5706 101.053 78.5552 101.161 78.5244 101.257C78.4974 101.349 78.4608 101.434 78.4146 101.511C78.3684 101.588 78.3145 101.659 78.2529 101.725C78.1952 101.79 78.1355 101.854 78.0739 101.915C78.0123 101.973 77.9507 102.033 77.8891 102.094C77.8314 102.152 77.7775 102.216 77.7274 102.285C77.6812 102.35 77.6427 102.423 77.6119 102.504C77.585 102.581 77.5715 102.67 77.5715 102.77V102.995H77.0806V102.724C77.0883 102.562 77.1172 102.425 77.1672 102.314C77.2211 102.198 77.2847 102.096 77.3578 102.008C77.4348 101.919 77.5137 101.838 77.5946 101.765C77.6793 101.688 77.7563 101.609 77.8256 101.528C77.8987 101.444 77.9565 101.351 77.9988 101.251C78.0412 101.151 78.0585 101.03 78.0508 100.887C78.0354 100.676 77.9661 100.51 77.8429 100.391C77.7236 100.271 77.5599 100.212 77.352 100.212C77.2134 100.212 77.0941 100.237 76.994 100.287C76.8939 100.337 76.8092 100.404 76.7399 100.489C76.6744 100.573 76.6263 100.674 76.5955 100.789C76.5647 100.905 76.5493 101.03 76.5493 101.164H76.0584Z" fill="#2D690D"/>
<path d="M103 102C103 106.418 99.4183 110 95 110H91C86.5817 110 83 106.418 83 102C83 97.5817 86.5817 94 91 94H95C99.4183 94 103 97.5817 103 102Z" fill="#F9F9F9"/>
<path d="M92.9577 103.108V101.104H92.9462L91.5833 103.108H92.9577ZM93.4197 103.108H93.9741V103.541H93.4197V104.5H92.9577V103.541H91.1617V103.068L93.027 100.406H93.4197V103.108Z" fill="#4E8C38"/>
<path d="M35.4505 123.877H37.3909C37.7836 123.877 38.0896 123.973 38.3091 124.165C38.5324 124.358 38.644 124.622 38.644 124.957C38.644 125.207 38.5863 125.426 38.4708 125.615C38.3591 125.804 38.1782 125.933 37.9279 126.002V126.013C38.0473 126.036 38.1435 126.075 38.2167 126.129C38.2937 126.183 38.3534 126.248 38.3957 126.325C38.4419 126.398 38.4746 126.481 38.4939 126.574C38.517 126.666 38.5343 126.762 38.5459 126.862C38.5536 126.962 38.5593 127.064 38.5632 127.168C38.567 127.272 38.5767 127.374 38.5921 127.474C38.6075 127.575 38.6286 127.671 38.6556 127.763C38.6864 127.852 38.7307 127.931 38.7884 128H38.1763C38.1378 127.958 38.1108 127.9 38.0954 127.827C38.0839 127.754 38.0762 127.673 38.0723 127.584C38.0685 127.492 38.0646 127.394 38.0608 127.29C38.0569 127.186 38.0454 127.084 38.0261 126.984C38.0107 126.883 37.9915 126.789 37.9684 126.701C37.9453 126.608 37.9087 126.529 37.8586 126.464C37.8086 126.395 37.7431 126.341 37.6623 126.302C37.5814 126.26 37.4736 126.239 37.3389 126.239H35.9991V128H35.4505V123.877ZM37.1425 125.777C37.2696 125.777 37.3909 125.767 37.5064 125.748C37.6219 125.728 37.722 125.692 37.8067 125.638C37.8952 125.58 37.9645 125.505 38.0146 125.413C38.0685 125.317 38.0954 125.193 38.0954 125.043C38.0954 124.835 38.0377 124.666 37.9222 124.535C37.8067 124.404 37.6199 124.339 37.362 124.339H35.9991V125.777H37.1425ZM41.3962 126.221C41.3885 126.106 41.3616 125.996 41.3154 125.892C41.273 125.788 41.2133 125.7 41.1363 125.626C41.0632 125.549 40.9746 125.49 40.8707 125.447C40.7706 125.401 40.6589 125.378 40.5357 125.378C40.4087 125.378 40.2932 125.401 40.1892 125.447C40.0891 125.49 40.0025 125.549 39.9294 125.626C39.8562 125.703 39.7985 125.794 39.7561 125.898C39.7138 125.998 39.6887 126.106 39.681 126.221H41.3962ZM41.8698 127.053C41.8043 127.388 41.6599 127.64 41.4366 127.809C41.2133 127.979 40.9323 128.064 40.5935 128.064C40.3548 128.064 40.1469 128.025 39.9698 127.948C39.7965 127.871 39.6502 127.763 39.5309 127.625C39.4115 127.486 39.3211 127.32 39.2595 127.128C39.2017 126.935 39.169 126.726 39.1613 126.498C39.1613 126.271 39.1959 126.063 39.2652 125.875C39.3345 125.686 39.4308 125.523 39.554 125.384C39.681 125.245 39.8293 125.138 39.9987 125.061C40.1719 124.984 40.3606 124.945 40.5646 124.945C40.8303 124.945 41.0497 125.001 41.223 125.112C41.4001 125.22 41.5406 125.359 41.6445 125.528C41.7523 125.698 41.8255 125.882 41.864 126.083C41.9063 126.283 41.9237 126.473 41.916 126.654H39.681C39.6772 126.785 39.6926 126.91 39.7272 127.03C39.7619 127.145 39.8177 127.249 39.8947 127.342C39.9717 127.43 40.0699 127.501 40.1892 127.555C40.3086 127.609 40.4491 127.636 40.6108 127.636C40.8187 127.636 40.9881 127.588 41.119 127.492C41.2538 127.396 41.3423 127.249 41.3847 127.053H41.8698ZM42.4248 125.014H42.8868V125.453H42.8984C43.1217 125.114 43.4431 124.945 43.8628 124.945C44.0476 124.945 44.2151 124.984 44.3652 125.061C44.5154 125.138 44.6212 125.268 44.6828 125.453C44.7829 125.292 44.9138 125.166 45.0755 125.078C45.2411 124.989 45.422 124.945 45.6184 124.945C45.7685 124.945 45.9033 124.962 46.0226 124.997C46.1458 125.028 46.2498 125.078 46.3345 125.147C46.423 125.216 46.4904 125.307 46.5366 125.419C46.5867 125.526 46.6117 125.657 46.6117 125.811V128H46.1208V126.042C46.1208 125.95 46.1131 125.863 46.0977 125.782C46.0823 125.702 46.0534 125.632 46.0111 125.574C45.9687 125.513 45.9091 125.465 45.8321 125.43C45.7589 125.395 45.6627 125.378 45.5433 125.378C45.3008 125.378 45.1102 125.447 44.9716 125.586C44.833 125.725 44.7637 125.909 44.7637 126.14V128H44.2728V126.042C44.2728 125.946 44.2632 125.857 44.2439 125.777C44.2285 125.696 44.1997 125.626 44.1573 125.569C44.115 125.507 44.0572 125.461 43.9841 125.43C43.9148 125.395 43.8243 125.378 43.7126 125.378C43.5702 125.378 43.447 125.407 43.343 125.465C43.2429 125.523 43.1602 125.592 43.0947 125.673C43.0331 125.754 42.9869 125.838 42.9561 125.927C42.9292 126.011 42.9157 126.083 42.9157 126.14V128H42.4248V125.014ZM47.868 124.477H47.3771V123.877H47.868V124.477ZM47.3771 125.014H47.868V128H47.3771V125.014ZM48.6284 125.014H49.0904V125.488H49.102C49.306 125.126 49.6294 124.945 50.0722 124.945C50.2685 124.945 50.4321 124.972 50.563 125.026C50.6939 125.08 50.7998 125.155 50.8807 125.251C50.9615 125.347 51.0173 125.463 51.0481 125.598C51.0828 125.728 51.1001 125.875 51.1001 126.036V128H50.6092V125.979C50.6092 125.794 50.5553 125.648 50.4475 125.54C50.3397 125.432 50.1915 125.378 50.0029 125.378C49.8527 125.378 49.7218 125.401 49.6102 125.447C49.5024 125.494 49.4119 125.559 49.3387 125.644C49.2656 125.728 49.2098 125.829 49.1713 125.944C49.1366 126.056 49.1193 126.179 49.1193 126.314V128H48.6284V125.014ZM52.1954 126.533C52.1954 126.672 52.2127 126.808 52.2474 126.943C52.2859 127.074 52.3417 127.191 52.4149 127.295C52.4919 127.399 52.5881 127.482 52.7036 127.544C52.823 127.605 52.9616 127.636 53.1194 127.636C53.285 127.636 53.4255 127.603 53.541 127.538C53.6565 127.473 53.7508 127.388 53.824 127.284C53.8971 127.176 53.9491 127.055 53.9799 126.92C54.0145 126.785 54.0319 126.649 54.0319 126.51C54.0319 126.364 54.0145 126.223 53.9799 126.088C53.9452 125.95 53.8894 125.829 53.8124 125.725C53.7393 125.621 53.643 125.538 53.5237 125.476C53.4043 125.411 53.2599 125.378 53.0905 125.378C52.925 125.378 52.7845 125.411 52.669 125.476C52.5535 125.542 52.4611 125.628 52.3918 125.736C52.3225 125.844 52.2724 125.967 52.2416 126.106C52.2108 126.244 52.1954 126.387 52.1954 126.533ZM54.5054 128H54.0145V127.596H54.003C53.9221 127.761 53.7951 127.881 53.6218 127.954C53.4486 128.027 53.258 128.064 53.0501 128.064C52.8191 128.064 52.617 128.021 52.4437 127.936C52.2743 127.852 52.1319 127.738 52.0164 127.596C51.9047 127.453 51.82 127.288 51.7623 127.099C51.7045 126.91 51.6757 126.71 51.6757 126.498C51.6757 126.287 51.7026 126.087 51.7565 125.898C51.8143 125.709 51.899 125.546 52.0106 125.407C52.1261 125.265 52.2686 125.153 52.438 125.072C52.6112 124.987 52.8114 124.945 53.0386 124.945C53.1156 124.945 53.1983 124.953 53.2869 124.968C53.3754 124.984 53.464 125.01 53.5525 125.049C53.6411 125.084 53.7239 125.132 53.8009 125.193C53.8817 125.251 53.9491 125.324 54.003 125.413H54.0145V123.877H54.5054V128ZM57.3339 126.221C57.3262 126.106 57.2992 125.996 57.253 125.892C57.2107 125.788 57.151 125.7 57.074 125.626C57.0008 125.549 56.9123 125.49 56.8083 125.447C56.7082 125.401 56.5966 125.378 56.4734 125.378C56.3463 125.378 56.2308 125.401 56.1269 125.447C56.0268 125.49 55.9402 125.549 55.867 125.626C55.7939 125.703 55.7361 125.794 55.6938 125.898C55.6514 125.998 55.6264 126.106 55.6187 126.221H57.3339ZM57.8074 127.053C57.742 127.388 57.5976 127.64 57.3743 127.809C57.151 127.979 56.8699 128.064 56.5311 128.064C56.2924 128.064 56.0845 128.025 55.9074 127.948C55.7342 127.871 55.5879 127.763 55.4685 127.625C55.3492 127.486 55.2587 127.32 55.1971 127.128C55.1394 126.935 55.1066 126.726 55.0989 126.498C55.0989 126.271 55.1336 126.063 55.2029 125.875C55.2722 125.686 55.3684 125.523 55.4916 125.384C55.6187 125.245 55.7669 125.138 55.9363 125.061C56.1096 124.984 56.2982 124.945 56.5023 124.945C56.7679 124.945 56.9874 125.001 57.1606 125.112C57.3377 125.22 57.4782 125.359 57.5822 125.528C57.69 125.698 57.7631 125.882 57.8016 126.083C57.844 126.283 57.8613 126.473 57.8536 126.654H55.6187C55.6148 126.785 55.6302 126.91 55.6649 127.03C55.6995 127.145 55.7554 127.249 55.8324 127.342C55.9094 127.43 56.0075 127.501 56.1269 127.555C56.2462 127.609 56.3868 127.636 56.5485 127.636C56.7564 127.636 56.9258 127.588 57.0567 127.492C57.1914 127.396 57.28 127.249 57.3223 127.053H57.8074ZM58.3451 125.014H58.8071V125.644H58.8187C58.938 125.401 59.0843 125.222 59.2576 125.107C59.4308 124.991 59.6503 124.937 59.9159 124.945V125.465C59.7196 125.465 59.5521 125.492 59.4135 125.546C59.2749 125.6 59.1632 125.678 59.0785 125.782C58.9938 125.886 58.9322 126.013 58.8937 126.164C58.8552 126.31 58.836 126.479 58.836 126.672V128H58.3451V125.014ZM60.5859 127.059C60.5897 127.166 60.6147 127.259 60.6609 127.336C60.7071 127.409 60.7668 127.469 60.84 127.515C60.917 127.557 61.0017 127.588 61.0941 127.607C61.1903 127.627 61.2885 127.636 61.3886 127.636C61.4656 127.636 61.5464 127.63 61.6311 127.619C61.7158 127.607 61.7928 127.586 61.8621 127.555C61.9353 127.525 61.995 127.48 62.0412 127.422C62.0874 127.361 62.1105 127.284 62.1105 127.191C62.1105 127.064 62.0623 126.968 61.9661 126.903C61.8698 126.837 61.7486 126.785 61.6023 126.747C61.4598 126.704 61.3039 126.668 61.1345 126.637C60.9651 126.602 60.8072 126.556 60.6609 126.498C60.5185 126.437 60.3991 126.352 60.3029 126.244C60.2066 126.137 60.1585 125.986 60.1585 125.794C60.1585 125.644 60.1912 125.515 60.2567 125.407C60.326 125.299 60.4126 125.213 60.5166 125.147C60.6244 125.078 60.7437 125.028 60.8746 124.997C61.0094 124.962 61.1422 124.945 61.2731 124.945C61.4425 124.945 61.5984 124.96 61.7409 124.991C61.8833 125.018 62.0084 125.068 62.1162 125.141C62.2279 125.211 62.3164 125.307 62.3819 125.43C62.4473 125.549 62.4858 125.7 62.4974 125.881H62.0065C61.9988 125.784 61.9738 125.705 61.9314 125.644C61.8891 125.578 61.8352 125.526 61.7697 125.488C61.7043 125.449 61.6311 125.422 61.5503 125.407C61.4733 125.388 61.3944 125.378 61.3135 125.378C61.2404 125.378 61.1653 125.384 61.0883 125.395C61.0151 125.407 60.9478 125.428 60.8862 125.459C60.8246 125.486 60.7745 125.524 60.736 125.574C60.6975 125.621 60.6783 125.682 60.6783 125.759C60.6783 125.844 60.7071 125.915 60.7649 125.973C60.8265 126.027 60.9035 126.073 60.9959 126.112C61.0883 126.146 61.1922 126.177 61.3077 126.204C61.4232 126.227 61.5387 126.252 61.6542 126.279C61.7774 126.306 61.8968 126.339 62.0123 126.377C62.1316 126.416 62.2356 126.468 62.3241 126.533C62.4165 126.595 62.4897 126.674 62.5436 126.77C62.6013 126.866 62.6302 126.986 62.6302 127.128C62.6302 127.309 62.5917 127.459 62.5147 127.578C62.4416 127.698 62.3434 127.794 62.2202 127.867C62.1008 127.94 61.9642 127.99 61.8102 128.017C61.66 128.048 61.5099 128.064 61.3597 128.064C61.1942 128.064 61.0363 128.046 60.8862 128.012C60.736 127.977 60.6032 127.921 60.4877 127.844C60.3722 127.763 60.2798 127.659 60.2105 127.532C60.1412 127.401 60.1027 127.243 60.095 127.059H60.5859Z" fill="#2D690D"/>
<path d="M115 126C115 130.418 111.418 134 107 134H75C70.5817 134 67 130.418 67 126C67 121.582 70.5817 118 75 118H107C111.418 118 115 121.582 115 126Z" fill="#F9F9F9"/>
<path d="M77.8355 125.584C77.8047 125.287 77.6969 125.073 77.5121 124.943C77.3312 124.808 77.0983 124.74 76.8134 124.74C76.6979 124.74 76.5843 124.752 76.4726 124.775C76.361 124.798 76.2609 124.837 76.1723 124.891C76.0876 124.945 76.0183 125.018 75.9644 125.11C75.9144 125.199 75.8894 125.31 75.8894 125.445C75.8894 125.572 75.9259 125.676 75.9991 125.757C76.0761 125.834 76.1762 125.897 76.2994 125.947C76.4264 125.997 76.5689 126.04 76.7267 126.074C76.8846 126.105 77.0444 126.14 77.2061 126.178C77.3716 126.217 77.5333 126.263 77.6912 126.317C77.849 126.367 77.9895 126.436 78.1127 126.525C78.2398 126.613 78.3399 126.725 78.413 126.86C78.49 126.995 78.5285 127.164 78.5285 127.368C78.5285 127.588 78.4785 127.776 78.3784 127.934C78.2821 128.088 78.157 128.215 78.003 128.315C77.849 128.411 77.6758 128.481 77.4833 128.523C77.2946 128.569 77.106 128.592 76.9173 128.592C76.6863 128.592 76.4669 128.564 76.259 128.506C76.0549 128.448 75.874 128.361 75.7161 128.246C75.5621 128.127 75.4389 127.976 75.3465 127.795C75.258 127.611 75.2137 127.393 75.2137 127.143H75.7334C75.7334 127.316 75.7662 127.466 75.8316 127.593C75.9009 127.717 75.9895 127.819 76.0973 127.899C76.2089 127.98 76.3379 128.04 76.4842 128.078C76.6305 128.117 76.7806 128.136 76.9346 128.136C77.0578 128.136 77.181 128.125 77.3042 128.102C77.4313 128.078 77.5449 128.04 77.645 127.986C77.7451 127.928 77.8259 127.851 77.8875 127.755C77.9491 127.659 77.9799 127.536 77.9799 127.385C77.9799 127.243 77.9414 127.127 77.8644 127.039C77.7913 126.95 77.6912 126.879 77.5641 126.825C77.4409 126.767 77.3004 126.721 77.1425 126.687C76.9847 126.652 76.823 126.617 76.6574 126.583C76.4957 126.544 76.336 126.502 76.1781 126.456C76.0203 126.406 75.8778 126.342 75.7508 126.265C75.6276 126.184 75.5275 126.082 75.4505 125.959C75.3773 125.832 75.3407 125.674 75.3407 125.485C75.3407 125.278 75.3831 125.099 75.4678 124.948C75.5525 124.794 75.6641 124.669 75.8027 124.573C75.9452 124.473 76.105 124.4 76.2821 124.354C76.463 124.303 76.6478 124.278 76.8365 124.278C77.0482 124.278 77.2446 124.303 77.4255 124.354C77.6065 124.404 77.7643 124.483 77.8991 124.59C78.0377 124.698 78.1455 124.835 78.2225 125C78.3033 125.162 78.3476 125.356 78.3553 125.584H77.8355ZM81.7593 128.488C81.6746 128.539 81.5572 128.564 81.407 128.564C81.28 128.564 81.1779 128.529 81.1009 128.46C81.0278 128.386 80.9912 128.269 80.9912 128.107C80.8565 128.269 80.6986 128.386 80.5177 128.46C80.3406 128.529 80.1481 128.564 79.9402 128.564C79.8054 128.564 79.6764 128.548 79.5532 128.517C79.4339 128.487 79.3299 128.438 79.2414 128.373C79.1528 128.307 79.0816 128.223 79.0277 128.119C78.9777 128.011 78.9526 127.882 78.9526 127.732C78.9526 127.563 78.9815 127.424 79.0393 127.316C79.097 127.208 79.1721 127.122 79.2645 127.056C79.3607 126.987 79.4685 126.935 79.5879 126.9C79.7111 126.866 79.8362 126.837 79.9633 126.814C80.098 126.787 80.2251 126.767 80.3444 126.756C80.4676 126.741 80.5754 126.721 80.6678 126.698C80.7602 126.671 80.8334 126.635 80.8873 126.588C80.9412 126.538 80.9681 126.467 80.9681 126.375C80.9681 126.267 80.9469 126.18 80.9046 126.115C80.8661 126.049 80.8141 125.999 80.7487 125.965C80.6871 125.93 80.6158 125.907 80.535 125.895C80.458 125.884 80.381 125.878 80.304 125.878C80.0961 125.878 79.9228 125.919 79.7842 125.999C79.6456 126.076 79.5706 126.225 79.559 126.444H79.0681C79.0758 126.259 79.1143 126.103 79.1836 125.976C79.2529 125.849 79.3453 125.747 79.4608 125.67C79.5763 125.589 79.7072 125.532 79.8535 125.497C80.0037 125.462 80.1635 125.445 80.3329 125.445C80.4676 125.445 80.6004 125.455 80.7313 125.474C80.8661 125.493 80.9874 125.534 81.0952 125.595C81.203 125.653 81.2896 125.736 81.355 125.843C81.4205 125.951 81.4532 126.092 81.4532 126.265V127.801C81.4532 127.917 81.459 128.001 81.4705 128.055C81.4859 128.109 81.5321 128.136 81.6091 128.136C81.6515 128.136 81.7015 128.127 81.7593 128.107V128.488ZM80.9623 126.958C80.9007 127.004 80.8199 127.039 80.7198 127.062C80.6197 127.081 80.5138 127.099 80.4022 127.114C80.2944 127.126 80.1846 127.141 80.073 127.16C79.9613 127.176 79.8612 127.203 79.7727 127.241C79.6841 127.28 79.611 127.335 79.5532 127.409C79.4993 127.478 79.4724 127.574 79.4724 127.697C79.4724 127.778 79.4878 127.847 79.5186 127.905C79.5532 127.959 79.5956 128.003 79.6456 128.038C79.6995 128.073 79.7611 128.098 79.8304 128.113C79.8997 128.128 79.9729 128.136 80.0499 128.136C80.2116 128.136 80.3502 128.115 80.4657 128.073C80.5812 128.026 80.6755 127.971 80.7487 127.905C80.8218 127.836 80.8757 127.763 80.9104 127.686C80.945 127.605 80.9623 127.53 80.9623 127.46V126.958ZM82.8976 125.514H83.4924V125.947H82.8976V127.801C82.8976 127.859 82.9014 127.905 82.9091 127.94C82.9207 127.974 82.9399 128.001 82.9669 128.021C82.9938 128.04 83.0304 128.053 83.0766 128.061C83.1267 128.065 83.1902 128.067 83.2672 128.067H83.4924V128.5H83.117C82.99 128.5 82.8803 128.492 82.7879 128.477C82.6993 128.458 82.6262 128.425 82.5684 128.379C82.5145 128.333 82.4741 128.267 82.4471 128.182C82.4202 128.098 82.4067 127.986 82.4067 127.847V125.947H81.8985V125.514H82.4067V124.619H82.8976V125.514ZM84.1475 127.859H84.7885V128.5H84.1475V127.859ZM88.4882 124.278H88.9098L87.2004 128.592H86.7846L88.4882 124.278ZM92.4691 128.5H91.9782V125.566H90.9156V125.174C91.0542 125.174 91.1889 125.164 91.3198 125.145C91.4507 125.122 91.5682 125.081 91.6721 125.023C91.7799 124.966 91.8704 124.887 91.9435 124.787C92.0167 124.687 92.0667 124.56 92.0937 124.406H92.4691V128.5ZM94.3844 126.485C94.3844 126.639 94.3883 126.812 94.396 127.004C94.4075 127.193 94.4383 127.372 94.4884 127.541C94.5423 127.707 94.627 127.847 94.7425 127.963C94.858 128.078 95.0197 128.136 95.2276 128.136C95.4355 128.136 95.5972 128.078 95.7127 127.963C95.8282 127.847 95.9109 127.707 95.961 127.541C96.0149 127.372 96.0457 127.193 96.0534 127.004C96.0649 126.812 96.0707 126.639 96.0707 126.485C96.0707 126.384 96.0688 126.275 96.0649 126.155C96.0649 126.032 96.0553 125.911 96.0361 125.792C96.0207 125.668 95.9956 125.549 95.961 125.433C95.9302 125.318 95.8821 125.218 95.8166 125.133C95.755 125.045 95.6761 124.973 95.5798 124.919C95.4836 124.866 95.3662 124.839 95.2276 124.839C95.089 124.839 94.9715 124.866 94.8753 124.919C94.779 124.973 94.6982 125.045 94.6327 125.133C94.5711 125.218 94.523 125.318 94.4884 125.433C94.4576 125.549 94.4325 125.668 94.4133 125.792C94.3979 125.911 94.3883 126.032 94.3844 126.155C94.3844 126.275 94.3844 126.384 94.3844 126.485ZM93.8647 126.49C93.8647 126.34 93.8685 126.184 93.8762 126.023C93.8839 125.861 93.9032 125.703 93.934 125.549C93.9648 125.395 94.009 125.249 94.0668 125.11C94.1245 124.971 94.2035 124.85 94.3036 124.746C94.4037 124.642 94.5288 124.56 94.6789 124.498C94.8329 124.436 95.0158 124.406 95.2276 124.406C95.4393 124.406 95.6203 124.436 95.7704 124.498C95.9244 124.56 96.0515 124.642 96.1516 124.746C96.2517 124.85 96.3306 124.971 96.3883 125.11C96.4461 125.249 96.4904 125.395 96.5212 125.549C96.552 125.703 96.5712 125.861 96.5789 126.023C96.5866 126.184 96.5905 126.34 96.5905 126.49C96.5905 126.64 96.5866 126.796 96.5789 126.958C96.5712 127.12 96.552 127.278 96.5212 127.432C96.4904 127.586 96.4461 127.732 96.3883 127.871C96.3306 128.005 96.2517 128.125 96.1516 128.229C96.0515 128.333 95.9263 128.415 95.7762 128.477C95.626 128.535 95.4432 128.564 95.2276 128.564C95.0158 128.564 94.8329 128.535 94.6789 128.477C94.5288 128.415 94.4037 128.333 94.3036 128.229C94.2035 128.125 94.1245 128.005 94.0668 127.871C94.009 127.732 93.9648 127.586 93.934 127.432C93.9032 127.278 93.8839 127.12 93.8762 126.958C93.8685 126.796 93.8647 126.64 93.8647 126.49ZM101.453 128.488C101.368 128.539 101.251 128.564 101.101 128.564C100.974 128.564 100.872 128.529 100.795 128.46C100.721 128.386 100.685 128.269 100.685 128.107C100.55 128.269 100.392 128.386 100.211 128.46C100.034 128.529 99.8417 128.564 99.6338 128.564C99.4991 128.564 99.3701 128.548 99.2469 128.517C99.1275 128.487 99.0236 128.438 98.935 128.373C98.8465 128.307 98.7753 128.223 98.7214 128.119C98.6713 128.011 98.6463 127.882 98.6463 127.732C98.6463 127.563 98.6752 127.424 98.7329 127.316C98.7907 127.208 98.8657 127.122 98.9581 127.056C99.0544 126.987 99.1622 126.935 99.2815 126.9C99.4047 126.866 99.5299 126.837 99.6569 126.814C99.7917 126.787 99.9187 126.767 100.038 126.756C100.161 126.741 100.269 126.721 100.361 126.698C100.454 126.671 100.527 126.635 100.581 126.588C100.635 126.538 100.662 126.467 100.662 126.375C100.662 126.267 100.641 126.18 100.598 126.115C100.56 126.049 100.508 125.999 100.442 125.965C100.381 125.93 100.309 125.907 100.229 125.895C100.152 125.884 100.075 125.878 99.9976 125.878C99.7897 125.878 99.6165 125.919 99.4779 125.999C99.3393 126.076 99.2642 126.225 99.2527 126.444H98.7618C98.7695 126.259 98.808 126.103 98.8773 125.976C98.9466 125.849 99.039 125.747 99.1545 125.67C99.27 125.589 99.4009 125.532 99.5472 125.497C99.6973 125.462 99.8571 125.445 100.027 125.445C100.161 125.445 100.294 125.455 100.425 125.474C100.56 125.493 100.681 125.534 100.789 125.595C100.897 125.653 100.983 125.736 101.049 125.843C101.114 125.951 101.147 126.092 101.147 126.265V127.801C101.147 127.917 101.153 128.001 101.164 128.055C101.18 128.109 101.226 128.136 101.303 128.136C101.345 128.136 101.395 128.127 101.453 128.107V128.488ZM100.656 126.958C100.594 127.004 100.514 127.039 100.413 127.062C100.313 127.081 100.207 127.099 100.096 127.114C99.988 127.126 99.8783 127.141 99.7666 127.16C99.655 127.176 99.5549 127.203 99.4663 127.241C99.3778 127.28 99.3046 127.335 99.2469 127.409C99.193 127.478 99.166 127.574 99.166 127.697C99.166 127.778 99.1814 127.847 99.2122 127.905C99.2469 127.959 99.2892 128.003 99.3393 128.038C99.3932 128.073 99.4548 128.098 99.5241 128.113C99.5934 128.128 99.6665 128.136 99.7435 128.136C99.9052 128.136 100.044 128.115 100.159 128.073C100.275 128.026 100.369 127.971 100.442 127.905C100.515 127.836 100.569 127.763 100.604 127.686C100.639 127.605 100.656 127.53 100.656 127.46V126.958ZM101.91 125.514H102.372V125.953H102.383C102.607 125.614 102.928 125.445 103.348 125.445C103.533 125.445 103.7 125.484 103.85 125.561C104 125.638 104.106 125.768 104.168 125.953C104.268 125.792 104.399 125.666 104.561 125.578C104.726 125.489 104.907 125.445 105.103 125.445C105.254 125.445 105.388 125.462 105.508 125.497C105.631 125.528 105.735 125.578 105.819 125.647C105.908 125.716 105.975 125.807 106.022 125.919C106.072 126.026 106.097 126.157 106.097 126.311V128.5H105.606V126.542C105.606 126.45 105.598 126.363 105.583 126.282C105.567 126.202 105.538 126.132 105.496 126.074C105.454 126.013 105.394 125.965 105.317 125.93C105.244 125.895 105.148 125.878 105.028 125.878C104.786 125.878 104.595 125.947 104.457 126.086C104.318 126.225 104.249 126.409 104.249 126.64V128.5H103.758V126.542C103.758 126.446 103.748 126.357 103.729 126.277C103.714 126.196 103.685 126.126 103.642 126.069C103.6 126.007 103.542 125.961 103.469 125.93C103.4 125.895 103.309 125.878 103.198 125.878C103.055 125.878 102.932 125.907 102.828 125.965C102.728 126.023 102.645 126.092 102.58 126.173C102.518 126.254 102.472 126.338 102.441 126.427C102.414 126.511 102.401 126.583 102.401 126.64V128.5H101.91V125.514Z" fill="#4E8C38"/>
</svg>
