<svg width="81" height="40" viewBox="0 0 81 40" fill="none" xmlns="http://www.w3.org/2000/svg">
<rect x="0.5" y="0.5" width="80" height="39" rx="7.5" stroke="#1E2E29"/>
<path d="M8.67456 26L12.5466 14.8H14.2746L18.1626 26H16.8026L15.7466 22.912H11.0426L10.0026 26H8.67456ZM11.3946 21.856H15.3946L13.3786 15.92L11.3946 21.856ZM23.9136 26.24C22.6176 26.24 21.5936 25.456 21.1136 24.288V26H19.9136V14.48H21.1136V19.808C21.5776 18.656 22.5696 17.76 24.0416 17.76C26.1216 17.76 27.5296 19.584 27.5296 21.936C27.5296 24.48 25.8816 26.24 23.9136 26.24ZM23.6416 25.136C25.2416 25.136 26.2816 23.808 26.2816 21.984C26.2816 20.192 25.2736 18.88 23.7056 18.88C22.0896 18.88 21.0976 20.224 21.0976 22.048C21.0976 23.808 22.0576 25.136 23.6416 25.136ZM32.8498 26.224C30.4978 26.224 28.9938 24.384 28.9938 21.984C28.9938 19.6 30.4978 17.76 32.8498 17.76C35.2018 17.76 36.7058 19.6 36.7058 21.984C36.7058 24.384 35.2018 26.224 32.8498 26.224ZM32.8498 25.12C34.4658 25.12 35.4738 23.792 35.4738 21.984C35.4738 20.176 34.4658 18.864 32.8498 18.864C31.2338 18.864 30.2418 20.176 30.2418 21.984C30.2418 23.808 31.2178 25.12 32.8498 25.12ZM41.5253 26.224C39.7333 26.224 38.6453 25.088 38.6453 23.056V18H39.8613V22.752C39.8613 24.352 40.5653 25.2 41.8933 25.2C43.3173 25.2 44.1333 24.048 44.1333 22.224V18H45.3333V26H44.1333V24.304C43.7013 25.536 42.8053 26.224 41.5253 26.224ZM48.9524 26V19.024H46.8884V18H48.9524V15.84L50.1684 15.44V18H52.4244V19.024H50.1684V26H48.9524ZM60.4159 26.224C58.6239 26.224 57.5359 25.088 57.5359 23.056V18H58.7519V22.752C58.7519 24.352 59.4559 25.2 60.7839 25.2C62.2079 25.2 63.0239 24.048 63.0239 22.224V18H64.2239V26H63.0239V24.304C62.5919 25.536 61.6959 26.224 60.4159 26.224ZM69.2511 26.24C68.0511 26.24 67.1071 25.856 66.3071 25.2V24.032C67.0911 24.752 68.0831 25.168 69.1231 25.168C70.2111 25.168 70.9151 24.704 70.9151 23.84C70.9151 23.264 70.6591 22.848 69.7631 22.544L68.2431 22.064C66.9311 21.648 66.3871 20.896 66.3871 19.952C66.3871 18.64 67.4911 17.76 69.2031 17.76C70.2591 17.76 71.1071 18.112 71.7311 18.544V19.728C71.0271 19.12 70.1311 18.816 69.2191 18.816C68.1631 18.816 67.5711 19.2 67.5711 19.92C67.5711 20.448 67.9231 20.864 68.6751 21.088L70.1311 21.52C71.5871 21.952 72.1151 22.736 72.1151 23.792C72.1151 25.28 70.9151 26.24 69.2511 26.24Z" fill="#1E2E29"/>
</svg>
