<svg width="86" height="86" viewBox="0 0 86 86" fill="none" xmlns="http://www.w3.org/2000/svg">
<rect width="86" height="86" rx="8" fill="#E6F8E9"/>
<path d="M24.438 39.084C24.3167 39.084 24.2187 39.056 24.144 39C24.0787 38.9533 24.0413 38.8833 24.032 38.79C24.032 38.6967 24.0553 38.594 24.102 38.482L28.036 29.438C28.1013 29.298 28.1807 29.2 28.274 29.144C28.3673 29.0787 28.4607 29.046 28.554 29.046C28.666 29.046 28.764 29.0787 28.848 29.144C28.9413 29.2 29.016 29.298 29.072 29.438L33.006 38.482C33.062 38.594 33.0853 38.6967 33.076 38.79C33.076 38.8833 33.0433 38.9533 32.978 39C32.922 39.056 32.8333 39.084 32.712 39.084C32.5813 39.084 32.474 39.0513 32.39 38.986C32.3153 38.9113 32.25 38.8133 32.194 38.692L31.116 36.158L31.578 36.368H25.516L25.992 36.158L24.914 38.692C24.858 38.832 24.788 38.9347 24.704 39C24.6293 39.056 24.5407 39.084 24.438 39.084ZM28.54 30.194L26.16 35.794L25.838 35.626H31.256L30.962 35.794L28.568 30.194H28.54ZM35.3115 39.084C35.1808 39.084 35.0782 39.0467 35.0035 38.972C34.9288 38.888 34.8915 38.776 34.8915 38.636V29.494C34.8915 29.3447 34.9288 29.2327 35.0035 29.158C35.0782 29.0833 35.1808 29.046 35.3115 29.046C35.4515 29.046 35.5588 29.0833 35.6335 29.158C35.7082 29.2327 35.7455 29.3447 35.7455 29.494V38.636C35.7455 38.776 35.7082 38.888 35.6335 38.972C35.5682 39.0467 35.4608 39.084 35.3115 39.084Z" fill="white"/>
<path d="M24.438 39.084C24.3167 39.084 24.2187 39.056 24.144 39C24.0787 38.9533 24.0413 38.8833 24.032 38.79C24.032 38.6967 24.0553 38.594 24.102 38.482L28.036 29.438C28.1013 29.298 28.1807 29.2 28.274 29.144C28.3673 29.0787 28.4607 29.046 28.554 29.046C28.666 29.046 28.764 29.0787 28.848 29.144C28.9413 29.2 29.016 29.298 29.072 29.438L33.006 38.482C33.062 38.594 33.0853 38.6967 33.076 38.79C33.076 38.8833 33.0433 38.9533 32.978 39C32.922 39.056 32.8333 39.084 32.712 39.084C32.5813 39.084 32.474 39.0513 32.39 38.986C32.3153 38.9113 32.25 38.8133 32.194 38.692L31.116 36.158L31.578 36.368H25.516L25.992 36.158L24.914 38.692C24.858 38.832 24.788 38.9347 24.704 39C24.6293 39.056 24.5407 39.084 24.438 39.084ZM28.54 30.194L26.16 35.794L25.838 35.626H31.256L30.962 35.794L28.568 30.194H28.54ZM35.3115 39.084C35.1808 39.084 35.0782 39.0467 35.0035 38.972C34.9288 38.888 34.8915 38.776 34.8915 38.636V29.494C34.8915 29.3447 34.9288 29.2327 35.0035 29.158C35.0782 29.0833 35.1808 29.046 35.3115 29.046C35.4515 29.046 35.5588 29.0833 35.6335 29.158C35.7082 29.2327 35.7455 29.3447 35.7455 29.494V38.636C35.7455 38.776 35.7082 38.888 35.6335 38.972C35.5682 39.0467 35.4608 39.084 35.3115 39.084Z" fill="#1E2E29" fill-opacity="0.5"/>
<path d="M25.1879 58C24.9959 58 24.8459 57.946 24.7379 57.838C24.6299 57.73 24.5759 57.574 24.5759 57.37V45.94C24.5759 45.736 24.6299 45.58 24.7379 45.472C24.8459 45.364 24.9959 45.31 25.1879 45.31H28.6619C30.6779 45.31 32.2319 45.85 33.3239 46.93C34.4279 48.01 34.9799 49.582 34.9799 51.646C34.9799 52.678 34.8359 53.59 34.5479 54.382C34.2719 55.174 33.8639 55.84 33.3239 56.38C32.7839 56.908 32.1239 57.31 31.3439 57.586C30.5639 57.862 29.6699 58 28.6619 58H25.1879ZM25.6739 57.028H28.5719C29.4479 57.028 30.2099 56.914 30.8579 56.686C31.5179 56.458 32.0639 56.122 32.4959 55.678C32.9279 55.234 33.2519 54.676 33.4679 54.004C33.6839 53.32 33.7919 52.534 33.7919 51.646C33.7919 49.858 33.3539 48.52 32.4779 47.632C31.6139 46.732 30.3119 46.282 28.5719 46.282H25.6739V57.028ZM38.3171 58.108C38.1491 58.108 38.0171 58.06 37.9211 57.964C37.8251 57.856 37.7771 57.712 37.7771 57.532V45.778C37.7771 45.586 37.8251 45.442 37.9211 45.346C38.0171 45.25 38.1491 45.202 38.3171 45.202C38.4971 45.202 38.6351 45.25 38.7311 45.346C38.8271 45.442 38.8751 45.586 38.8751 45.778V57.532C38.8751 57.712 38.8271 57.856 38.7311 57.964C38.6471 58.06 38.5091 58.108 38.3171 58.108ZM45.8072 58.108C45.6272 58.108 45.4892 58.06 45.3932 57.964C45.2972 57.856 45.2492 57.706 45.2492 57.514V51.412L45.5192 52.276L40.9112 45.994C40.8152 45.862 40.7672 45.736 40.7672 45.616C40.7792 45.484 40.8272 45.382 40.9112 45.31C41.0072 45.238 41.1212 45.202 41.2532 45.202C41.3852 45.202 41.4992 45.232 41.5952 45.292C41.7032 45.34 41.7992 45.43 41.8832 45.562L45.9872 51.178H45.6632L49.7852 45.562C49.8812 45.43 49.9712 45.34 50.0552 45.292C50.1512 45.232 50.2652 45.202 50.3972 45.202C50.5292 45.202 50.6372 45.238 50.7212 45.31C50.8052 45.382 50.8472 45.484 50.8472 45.616C50.8592 45.736 50.8112 45.868 50.7032 46.012L46.1132 52.276L46.3652 51.412V57.514C46.3652 57.91 46.1792 58.108 45.8072 58.108Z" fill="white"/>
<path d="M25.1879 58C24.9959 58 24.8459 57.946 24.7379 57.838C24.6299 57.73 24.5759 57.574 24.5759 57.37V45.94C24.5759 45.736 24.6299 45.58 24.7379 45.472C24.8459 45.364 24.9959 45.31 25.1879 45.31H28.6619C30.6779 45.31 32.2319 45.85 33.3239 46.93C34.4279 48.01 34.9799 49.582 34.9799 51.646C34.9799 52.678 34.8359 53.59 34.5479 54.382C34.2719 55.174 33.8639 55.84 33.3239 56.38C32.7839 56.908 32.1239 57.31 31.3439 57.586C30.5639 57.862 29.6699 58 28.6619 58H25.1879ZM25.6739 57.028H28.5719C29.4479 57.028 30.2099 56.914 30.8579 56.686C31.5179 56.458 32.0639 56.122 32.4959 55.678C32.9279 55.234 33.2519 54.676 33.4679 54.004C33.6839 53.32 33.7919 52.534 33.7919 51.646C33.7919 49.858 33.3539 48.52 32.4779 47.632C31.6139 46.732 30.3119 46.282 28.5719 46.282H25.6739V57.028ZM38.3171 58.108C38.1491 58.108 38.0171 58.06 37.9211 57.964C37.8251 57.856 37.7771 57.712 37.7771 57.532V45.778C37.7771 45.586 37.8251 45.442 37.9211 45.346C38.0171 45.25 38.1491 45.202 38.3171 45.202C38.4971 45.202 38.6351 45.25 38.7311 45.346C38.8271 45.442 38.8751 45.586 38.8751 45.778V57.532C38.8751 57.712 38.8271 57.856 38.7311 57.964C38.6471 58.06 38.5091 58.108 38.3171 58.108ZM45.8072 58.108C45.6272 58.108 45.4892 58.06 45.3932 57.964C45.2972 57.856 45.2492 57.706 45.2492 57.514V51.412L45.5192 52.276L40.9112 45.994C40.8152 45.862 40.7672 45.736 40.7672 45.616C40.7792 45.484 40.8272 45.382 40.9112 45.31C41.0072 45.238 41.1212 45.202 41.2532 45.202C41.3852 45.202 41.4992 45.232 41.5952 45.292C41.7032 45.34 41.7992 45.43 41.8832 45.562L45.9872 51.178H45.6632L49.7852 45.562C49.8812 45.43 49.9712 45.34 50.0552 45.292C50.1512 45.232 50.2652 45.202 50.3972 45.202C50.5292 45.202 50.6372 45.238 50.7212 45.31C50.8052 45.382 50.8472 45.484 50.8472 45.616C50.8592 45.736 50.8112 45.868 50.7032 46.012L46.1132 52.276L46.3652 51.412V57.514C46.3652 57.91 46.1792 58.108 45.8072 58.108Z" fill="#1E2E29"/>
</svg>
