<svg width="108" height="40" viewBox="0 0 108 40" fill="none" xmlns="http://www.w3.org/2000/svg">
<rect width="108" height="40" rx="8" fill="#AEF5B7"/>
<path d="M10.3914 26.32C9.49544 26.32 8.72744 26 8.35944 25.664V24.352C8.74344 24.736 9.35144 25.088 10.2954 25.088C11.3514 25.088 12.1034 24.432 12.1034 22.912V14.8H13.3834V23.008C13.3834 25.264 12.1194 26.32 10.3914 26.32ZM19.3029 26.224C16.9509 26.224 15.4469 24.384 15.4469 21.984C15.4469 19.6 16.9509 17.76 19.3029 17.76C21.6549 17.76 23.1589 19.6 23.1589 21.984C23.1589 24.384 21.6549 26.224 19.3029 26.224ZM19.3029 25.12C20.9189 25.12 21.9269 23.792 21.9269 21.984C21.9269 20.176 20.9189 18.864 19.3029 18.864C17.6869 18.864 16.6949 20.176 16.6949 21.984C16.6949 23.808 17.6709 25.12 19.3029 25.12ZM25.2584 26V18H26.4744V26H25.2584ZM25.8664 16.4C25.4024 16.4 25.0344 16.032 25.0344 15.584C25.0344 15.136 25.4024 14.8 25.8664 14.8C26.3144 14.8 26.6664 15.136 26.6664 15.584C26.6664 16.032 26.3144 16.4 25.8664 16.4ZM29.1323 26V18H30.3323V19.6C30.7643 18.448 31.7243 17.76 33.0843 17.76C34.8283 17.76 35.8843 18.96 35.8843 21.024V26H34.6683V21.28C34.6683 19.616 34.0603 18.816 32.6843 18.816C31.2123 18.816 30.3323 19.936 30.3323 21.664V26H29.1323ZM41.2066 27.92L45.8466 13.2H47.0306L42.3906 27.92H41.2066ZM55.5648 26.304C54.2688 26.304 52.9888 25.808 52.0128 24.928V23.568C52.9088 24.448 54.1088 25.088 55.4848 25.088C57.0048 25.088 57.8688 24.4 57.8688 23.184C57.8688 22.24 57.3728 21.744 55.6768 20.992L54.5728 20.512C52.9568 19.808 52.1248 18.864 52.1248 17.488C52.1248 15.744 53.4528 14.496 55.6448 14.496C57.1328 14.496 58.1888 15.072 58.7648 15.632V17.008C57.9328 16.208 56.9568 15.696 55.6608 15.696C54.2368 15.696 53.4368 16.32 53.4368 17.392C53.4368 18.368 54.0768 18.88 55.3888 19.456L56.5568 19.984C58.4608 20.848 59.2128 21.744 59.2128 23.12C59.2128 25.04 57.7728 26.304 55.5648 26.304ZM61.3053 26V18H62.5213V26H61.3053ZM61.9133 16.4C61.4493 16.4 61.0813 16.032 61.0813 15.584C61.0813 15.136 61.4493 14.8 61.9133 14.8C62.3613 14.8 62.7133 15.136 62.7133 15.584C62.7133 16.032 62.3613 16.4 61.9133 16.4ZM68.1712 29.264C67.0032 29.264 66.0432 28.944 65.3232 28.256V27.008C66.0272 27.76 66.9712 28.176 68.1072 28.176C70.0272 28.176 70.8912 26.96 70.8912 25.184V23.776C70.3632 25.056 69.4352 25.744 68.1232 25.744C65.9472 25.744 64.6192 24.112 64.6192 21.824C64.6192 19.488 66.0752 17.76 68.2672 17.76C69.5952 17.76 70.4272 18.416 70.8912 19.664V18H72.1072V25.392C72.1072 27.808 70.5392 29.264 68.1712 29.264ZM68.3312 24.656C69.8672 24.656 70.8912 23.44 70.8912 21.728C70.8912 20.016 69.8512 18.832 68.4112 18.832C66.8272 18.832 65.8672 20.096 65.8672 21.824C65.8672 23.488 66.7792 24.656 68.3312 24.656ZM74.7104 26V18H75.9104V19.6C76.3424 18.448 77.3024 17.76 78.6624 17.76C80.4064 17.76 81.4624 18.96 81.4624 21.024V26H80.2464V21.28C80.2464 19.616 79.6384 18.816 78.2624 18.816C76.7904 18.816 75.9104 19.936 75.9104 21.664V26H74.7104ZM88.1491 26V18H89.3651V26H88.1491ZM88.7571 16.4C88.2931 16.4 87.9251 16.032 87.9251 15.584C87.9251 15.136 88.2931 14.8 88.7571 14.8C89.2051 14.8 89.5571 15.136 89.5571 15.584C89.5571 16.032 89.2051 16.4 88.7571 16.4ZM92.0229 26V18H93.2229V19.6C93.6549 18.448 94.6149 17.76 95.9749 17.76C97.7189 17.76 98.7749 18.96 98.7749 21.024V26H97.5589V21.28C97.5589 19.616 96.9509 18.816 95.5749 18.816C94.1029 18.816 93.2229 19.936 93.2229 21.664V26H92.0229Z" fill="#1E2E29"/>
</svg>
