<svg width="11" height="16" viewBox="0 0 11 16" fill="none" xmlns="http://www.w3.org/2000/svg">
<path d="M5.28721 15.1143C5.43903 15.1064 5.55843 15.0521 5.63358 14.9805L10.4199 10.4461C10.6294 10.2375 10.621 9.92543 10.4396 9.73376C10.2582 9.5421 9.91887 9.53272 9.72721 9.7141L5.79121 13.4374L5.79121 0.503767C5.79121 0.22551 5.56569 -2.19023e-07 5.28744 -2.31186e-07C5.00918 -2.43349e-07 4.78367 0.22552 4.78367 0.503767L4.78367 13.4374L0.847672 9.7141C0.656004 9.53272 0.323073 9.54847 0.135306 9.73376C-0.0589642 9.92543 -0.0367007 10.2649 0.154967 10.4461L4.9413 14.9805C5.06357 15.1001 5.1676 15.1065 5.28767 15.1143L5.28721 15.1143Z" fill="#D1F5D6"/>
</svg>
