<svg width="28" height="28" viewBox="0 0 28 28" fill="none" xmlns="http://www.w3.org/2000/svg">
<circle cx="13.75" cy="13.75" r="13.5938" fill="#1E2E29" stroke="#AEF5B7" stroke-width="0.3125"/>
<path d="M8.52251 13.0953C9.45751 13.0953 10.2225 12.3303 10.2225 11.3953C10.2225 10.4603 9.45751 9.69531 8.52251 9.69531C7.58751 9.69531 6.82251 10.4603 6.82251 11.3953C6.82251 12.3303 7.58751 13.0953 8.52251 13.0953Z" fill="#AEF5B7"/>
<path d="M10.0185 16.773C10.0185 15.8719 10.3585 15.039 10.9025 14.41C10.6645 14.053 10.3415 13.7469 9.96749 13.543C9.55948 13.8319 9.04948 13.985 8.50549 13.985C7.96152 13.985 7.4685 13.815 7.04349 13.543C6.22746 14.0019 5.6665 14.886 5.6665 15.889V16.246C5.6665 16.6199 5.97253 16.926 6.3465 16.926H10.0185L10.0185 16.773Z" fill="#AEF5B7"/>
<path d="M17.2945 11.3953C17.2945 12.3303 18.0595 13.0953 18.9945 13.0953C19.9295 13.0953 20.6945 12.3303 20.6945 11.3953C20.6945 10.4603 19.9295 9.69531 18.9945 9.69531C18.0595 9.69531 17.2945 10.4603 17.2945 11.3953Z" fill="#AEF5B7"/>
<path d="M20.4565 13.5586C20.0315 13.8476 19.5385 14.0006 18.9945 14.0006C18.4505 14.0006 17.9575 13.8306 17.5325 13.5586C17.1585 13.7626 16.8355 14.0686 16.5975 14.4256C17.1585 15.0376 17.4985 15.8706 17.4985 16.7716V16.9416H21.1535C21.5274 16.9416 21.8335 16.6356 21.8335 16.2616V15.9046C21.8335 14.8846 21.2724 14.0176 20.4565 13.5586H20.4565Z" fill="#AEF5B7"/>
<path d="M13.7585 13.982C14.6935 13.982 15.4585 13.217 15.4585 12.282C15.4585 11.347 14.6935 10.582 13.7585 10.582C12.8235 10.582 12.0585 11.347 12.0585 12.282C12.0585 13.217 12.8235 13.982 13.7585 13.982Z" fill="#AEF5B7"/>
<path d="M10.9195 16.7718V17.1288C10.9195 17.5027 11.2255 17.8088 11.5995 17.8088H15.9005C16.2745 17.8088 16.5805 17.5027 16.5805 17.1288L16.5805 16.7718C16.5805 15.7688 16.0194 14.8848 15.2035 14.4258C14.7785 14.7148 14.2855 14.8678 13.7415 14.8678C13.1975 14.8678 12.7045 14.6978 12.2795 14.4258C11.4804 14.8848 10.9195 15.7688 10.9195 16.7718H10.9195Z" fill="#AEF5B7"/>
</svg>
