<svg width="24" height="24" viewBox="0 0 24 24" fill="none" xmlns="http://www.w3.org/2000/svg">
<circle cx="12" cy="11.75" r="11" fill="#1E2E29"/>
<path d="M13.7276 8.6042C13.6637 8.5276 13.5706 8.48142 13.4709 8.47692C13.3713 8.47243 13.2744 8.51003 13.2039 8.58054C13.1334 8.65105 13.0958 8.74796 13.1003 8.8476C13.1048 8.94721 13.151 9.04034 13.2276 9.10421L15.7786 11.6582H7.34689C7.22436 11.6647 7.11381 11.7338 7.05435 11.8412C6.99491 11.9485 6.99491 12.0789 7.05435 12.1862C7.11382 12.2936 7.22436 12.3627 7.34689 12.3692H15.7786L13.2236 14.9202C13.1592 14.9876 13.1234 15.0771 13.1234 15.1702C13.1234 15.2633 13.1592 15.3529 13.2236 15.4202C13.2898 15.4866 13.3797 15.524 13.4736 15.524C13.5674 15.524 13.6573 15.4866 13.7236 15.4202L16.8836 12.2602C16.9515 12.1948 16.9899 12.1045 16.9899 12.0102C16.9899 11.9159 16.9515 11.8256 16.8836 11.7602L13.7276 8.6042Z" fill="#AEF5B7" stroke="#AEF5B7"/>
</svg>
