<svg width="8" height="6" viewBox="0 0 8 6" fill="none" xmlns="http://www.w3.org/2000/svg">
<path d="M7.55716 2.64457C7.55319 2.56866 7.52604 2.50896 7.49023 2.47139L5.22306 0.0782214C5.11877 -0.0265319 4.96271 -0.0222987 4.86688 0.0683907C4.77105 0.159081 4.76636 0.328741 4.85705 0.424574L6.71872 2.39257H0.251883C0.112755 2.39257 0 2.50533 0 2.64446C0 2.78359 0.11276 2.89634 0.251883 2.89634H6.71872L4.85705 4.86434C4.76636 4.96018 4.77424 5.12664 4.86688 5.22052C4.96271 5.31766 5.13245 5.30653 5.22306 5.21069L7.49023 2.81753C7.55006 2.75639 7.55325 2.70438 7.55716 2.64434V2.64457Z" fill="black"/>
</svg>
