<svg width="28" height="28" viewBox="0 0 28 28" fill="none" xmlns="http://www.w3.org/2000/svg">
<circle cx="13.75" cy="13.75" r="13.5938" fill="#1E2E29" stroke="#AEF5B7" stroke-width="0.3125"/>
<path d="M19.8309 11.4426L18.9551 14.9459C18.8089 15.5316 18.2845 15.9411 17.6808 15.9411H11.5227L11.7231 16.824C11.7461 16.8229 11.7674 16.8169 11.7899 16.8169C12.3603 16.8169 12.842 17.1842 13.0231 17.6927H16.2499C16.4311 17.1842 16.9128 16.8169 17.4832 16.8169C18.2074 16.8169 18.7969 17.4064 18.7969 18.1306C18.7969 18.8548 18.2074 19.4443 17.4832 19.4443C16.9128 19.4443 16.4311 19.077 16.2499 18.5685H13.0231C12.842 19.077 12.3603 19.4443 11.7899 19.4443C11.0657 19.4443 10.4761 18.8548 10.4761 18.1306C10.4761 17.7485 10.6425 17.4081 10.9031 17.1677L9.03163 8.93442H8.06767C7.82572 8.93442 7.62976 8.73846 7.62976 8.49651C7.62976 8.25456 7.82572 8.05859 8.06767 8.05859H9.03218C9.44327 8.05859 9.79469 8.33886 9.88556 8.74064L10.1286 9.81024H18.5562C18.9635 9.81024 19.3412 9.99417 19.5914 10.3155C19.8421 10.6363 19.9291 11.0473 19.8306 11.4426L19.8309 11.4426Z" fill="#AEF5B7"/>
</svg>
