<svg width="56" height="43" viewBox="0 0 56 43" fill="none" xmlns="http://www.w3.org/2000/svg">
<path d="M0 21.5C0 9.62588 9.62588 0 21.5 0H34.5C46.3741 0 56 9.62588 56 21.5V21.5C56 33.3741 46.3741 43 34.5 43H21.5C9.62588 43 0 33.3741 0 21.5V21.5Z" fill="#D3F7D8"/>
<path d="M38.3042 21.5008C38.2933 21.2938 38.2193 21.131 38.1217 21.0285L31.9391 14.5024C31.6547 14.2167 31.2291 14.2283 30.9678 14.4756C30.7064 14.7229 30.6937 15.1855 30.941 15.4469L36.0177 20.8136H18.3827C18.0033 20.8136 17.6958 21.1211 17.6958 21.5005C17.6958 21.8799 18.0033 22.1874 18.3827 22.1874H36.0177L30.941 27.5541C30.6937 27.8155 30.7151 28.2694 30.9678 28.5254C31.2291 28.7903 31.692 28.76 31.9391 28.4986L38.1217 21.9725C38.2848 21.8057 38.2935 21.6639 38.3042 21.5002V21.5008Z" fill="#2D690D"/>
</svg>
