<svg width="28" height="28" viewBox="0 0 28 28" fill="none" xmlns="http://www.w3.org/2000/svg">
<circle cx="13.75" cy="13.75" r="13.5938" fill="#1E2E29" stroke="#AEF5B7" stroke-width="0.3125"/>
<path fill-rule="evenodd" clip-rule="evenodd" d="M18.4232 12.2861C18.4232 12.5285 18.2257 12.7253 17.9847 12.7253C17.7438 12.7253 17.5463 12.5285 17.5463 12.2861V10.9726C17.5463 10.7017 17.4389 10.441 17.2469 10.2494C17.0549 10.0581 16.7953 9.94965 16.5241 9.94965H15.2105C14.9678 9.94965 14.7721 9.75434 14.7721 9.51193C14.7721 9.26953 14.9678 9.07422 15.2105 9.07422H16.5241C17.0286 9.07422 17.5105 9.27355 17.866 9.63058C18.222 9.98616 18.4231 10.4684 18.4231 10.9725L18.4232 12.2861ZM15.2106 18.4196C14.9678 18.4196 14.7721 18.2239 14.7721 17.9815C14.7721 17.7391 14.9678 17.5438 15.2106 17.5438H16.5241C16.7954 17.5438 17.0549 17.4357 17.2469 17.2441C17.439 17.0524 17.5463 16.7921 17.5463 16.5209V15.2074C17.5463 14.965 17.7438 14.7685 17.9847 14.7685C18.2257 14.7685 18.4232 14.965 18.4232 15.2074V16.5209C18.4232 17.025 18.222 17.5073 17.8661 17.8629C17.5105 18.2199 17.0287 18.4196 16.5241 18.4196L15.2106 18.4196ZM9.07669 15.2074C9.07669 14.965 9.27419 14.7686 9.51514 14.7686C9.75608 14.7686 9.95358 14.965 9.95358 15.2074V16.5209C9.95358 16.7922 10.0609 17.0525 10.2529 17.2441C10.445 17.4358 10.7045 17.5438 10.9758 17.5438H12.2893C12.5324 17.5438 12.7281 17.7392 12.7281 17.9816C12.7281 18.224 12.5324 18.4196 12.2893 18.4196H10.9758C10.4712 18.4196 9.98933 18.2199 9.6338 17.8629C9.27823 17.5073 9.07671 17.0251 9.07671 16.521L9.07669 15.2074ZM12.2893 9.07429C12.5324 9.07429 12.7281 9.2696 12.7281 9.512C12.7281 9.75441 12.5324 9.94972 12.2893 9.94972H10.9757C10.7045 9.94972 10.4449 10.0581 10.2529 10.2494C10.0609 10.4411 9.95355 10.7017 9.95355 10.9726V12.2862C9.95355 12.5286 9.75605 12.7253 9.51511 12.7253C9.27416 12.7253 9.07666 12.5286 9.07666 12.2862V10.9726C9.07666 10.4685 9.27818 9.98619 9.63375 9.63066C9.98932 9.27362 10.4712 9.0743 10.9757 9.0743L12.2893 9.07429Z" fill="#AEF5B7" stroke="#AEF5B7" stroke-width="0.418314"/>
</svg>
