<svg width="56" height="43" viewBox="0 0 56 43" fill="none" xmlns="http://www.w3.org/2000/svg">
<path d="M0 21.5C0 9.62588 9.62588 0 21.5 0H34.5C46.3741 0 56 9.62588 56 21.5V21.5C56 33.3741 46.3741 43 34.5 43H21.5C9.62588 43 0 33.3741 0 21.5V21.5Z" fill="#2D690D"/>
<path d="M21.83 13.5742L21.9824 13.5833L22.1331 13.6471L34.4678 20.9891C34.8504 21.217 34.8504 21.7709 34.4678 21.9988L22.1331 29.3405C21.7416 29.5737 21.2453 29.2915 21.2453 28.836V14.1519C21.2617 13.8905 21.4115 13.655 21.6802 13.5842L21.83 13.5742Z" fill="#D3F7D8"/>
</svg>
