<svg width="156" height="51" viewBox="0 0 156 51" fill="none" xmlns="http://www.w3.org/2000/svg">
<path d="M66.8714 12.3271C66.5198 12.0459 66.2854 11.6474 65.9573 11.3193C64.0354 9.49119 61.3167 8.88183 58.7151 9.09276C55.2932 9.35058 52.1292 11.3193 50.0901 14.0146C44.887 20.8115 45.8011 31.9678 52.9026 37.124C56.5354 39.7725 61.9729 40.335 65.6057 37.3818C66.0979 36.9834 66.4964 36.4678 66.9885 36.0928C68.8401 40.3584 75.0979 39.2803 75.4729 34.6396V13.8975C75.1448 9.18652 68.8401 8.06151 66.8948 12.3506L66.8714 12.3271ZM61.5042 30.7256C54.0745 31.3115 53.676 18.4209 60.3557 17.6943C68.0901 16.8506 68.5354 30.1631 61.5042 30.7256ZM40.1292 5.03807C39.426 2.55369 38.2073 0.608388 35.4885 0.139637C30.5667 -0.704113 29.0667 2.38964 27.6135 6.35058C25.7854 11.3428 24.4495 16.6396 22.6917 21.6553L22.5276 21.7724C20.8636 16.874 19.5042 11.8818 17.7698 7.00683C16.4104 3.20995 15.1448 -0.23537 10.3635 0.0224428C6.98855 0.209943 5.55888 2.624 4.85576 5.624C3.68388 12.2803 2.3948 18.9365 1.24636 25.5928C0.847924 27.9131 -0.347401 33.1631 0.0979116 35.2256C0.660412 37.9912 3.28544 39.1396 5.91044 38.624C8.48856 38.1084 9.16824 35.4834 9.63699 33.2334L12.0042 17.3193L12.1917 17.6006C14.301 23.3428 15.5667 29.7646 17.7698 35.4365C18.7542 37.9443 20.2776 38.8818 22.9964 38.7412C25.8089 38.6006 26.7932 37.1006 27.637 34.6865C29.4885 29.3428 30.9417 23.7412 32.7229 18.3506C32.8401 18.0224 32.9339 17.624 33.1214 17.3193C34.1761 23.1787 34.762 29.1318 35.9573 34.9678C36.8479 40.3115 44.9807 39.8662 45.1917 34.4287C45.2385 32.999 44.8167 31.0537 44.5823 29.6006C43.2464 21.374 41.6292 13.1943 40.1526 5.01464L40.1292 5.03807ZM102.239 14.6709C95.5823 23.2724 99.5432 37.0303 110.699 39.0693C115.129 39.8662 122.137 38.8818 125.606 35.7881C129.051 32.6943 126.426 27.2803 121.926 29.0146C120.614 29.5068 119.489 30.2334 118.106 30.6318C114.848 31.5459 109.082 31.4053 108.637 27.0693H124.645C125.723 27.0693 126.918 26.3193 127.317 25.3115C128.324 22.8037 127.012 18.2568 125.699 15.9834C120.684 7.17089 108.309 6.88964 102.239 14.7178V14.6709ZM108.637 20.9521C108.824 18.8428 110.723 17.1318 112.739 16.7334C115.528 16.1709 118.481 18.0459 118.762 20.9521H108.637ZM95.0432 9.98338H91.8323V3.74902C91.8323 1.94433 89.4651 0.13963 87.7776 0.0224428C85.551 -0.14162 82.9729 1.75683 82.9729 4.07714V9.98338C81.0276 9.93651 78.637 10.1709 77.8167 12.21C77.1604 13.874 77.3714 16.4756 79.0354 17.4834C79.551 17.8115 80.9339 18.2568 81.5198 18.2568H82.9729V34.6865C82.9729 37.0303 85.6213 38.9521 87.8479 38.7412C89.4885 38.5771 91.8323 36.7959 91.8323 35.0381V18.3975L91.9495 18.2803H95.2073C95.3713 18.2803 96.1448 18.0693 96.3557 17.999C100.293 16.7334 99.4964 9.98338 95.0432 9.98338ZM155.301 11.9521C154.668 10.5693 153.309 9.79588 151.809 9.65526C149.067 9.42088 147.637 11.5303 146.606 13.71C145.012 17.085 143.817 20.8115 142.176 24.1631C142.106 24.2803 142.059 24.4209 141.942 24.5146C140.231 20.835 138.989 16.9443 137.348 13.2178C136.293 10.8506 134.957 9.32713 132.098 9.63181C129.66 9.91306 127.926 12.0225 128.371 14.4834C128.582 15.5615 129.145 16.9443 129.567 17.9756C131.91 23.8584 134.793 29.5303 137.137 35.4131C136.317 37.499 135.239 39.4443 134.348 41.5068C133.832 42.7256 133.035 44.4834 132.942 45.7959C132.59 50.6474 139.34 52.0068 141.379 47.8584C145.668 38.0615 150.473 28.4053 154.481 18.4678C155.348 16.335 156.332 14.1787 155.278 11.9053L155.301 11.9521Z" fill="#1E2E29"/>
</svg>
